<svg width="1281" height="56" viewBox="0 0 1281 56" fill="none" xmlns="http://www.w3.org/2000/svg">
<path d="M76.6 8.1V22H74.32V15.92H67.78V22H65.5V8.1H67.78V14.06H74.32V8.1H76.6ZM80.7616 9.52C80.3482 9.52 80.0016 9.38 79.7216 9.1C79.4416 8.82 79.3016 8.47333 79.3016 8.06C79.3016 7.64667 79.4416 7.3 79.7216 7.02C80.0016 6.74 80.3482 6.6 80.7616 6.6C81.1616 6.6 81.5016 6.74 81.7816 7.02C82.0616 7.3 82.2016 7.64667 82.2016 8.06C82.2016 8.47333 82.0616 8.82 81.7816 9.1C81.5016 9.38 81.1616 9.52 80.7616 9.52ZM81.8816 10.98V22H79.6016V10.98H81.8816ZM89.315 10.8C90.1683 10.8 90.9217 10.9733 91.575 11.32C92.2417 11.6533 92.7617 12.0733 93.135 12.58V10.98H95.435V22.18C95.435 23.1933 95.2217 24.0933 94.795 24.88C94.3683 25.68 93.7483 26.3067 92.935 26.76C92.135 27.2133 91.175 27.44 90.055 27.44C88.5617 27.44 87.3217 27.0867 86.335 26.38C85.3483 25.6867 84.7883 24.74 84.655 23.54H86.915C87.0883 24.1133 87.455 24.5733 88.015 24.92C88.5883 25.28 89.2683 25.46 90.055 25.46C90.975 25.46 91.715 25.18 92.275 24.62C92.8483 24.06 93.135 23.2467 93.135 22.18V20.34C92.7483 20.86 92.2217 21.3 91.555 21.66C90.9017 22.0067 90.155 22.18 89.315 22.18C88.355 22.18 87.475 21.94 86.675 21.46C85.8883 20.9667 85.2617 20.2867 84.795 19.42C84.3417 18.54 84.115 17.5467 84.115 16.44C84.115 15.3333 84.3417 14.3533 84.795 13.5C85.2617 12.6467 85.8883 11.9867 86.675 11.52C87.475 11.04 88.355 10.8 89.315 10.8ZM93.135 16.48C93.135 15.72 92.975 15.06 92.655 14.5C92.3483 13.94 91.9417 13.5133 91.435 13.22C90.9283 12.9267 90.3817 12.78 89.795 12.78C89.2083 12.78 88.6617 12.9267 88.155 13.22C87.6483 13.5 87.235 13.92 86.915 14.48C86.6083 15.0267 86.455 15.68 86.455 16.44C86.455 17.2 86.6083 17.8667 86.915 18.44C87.235 19.0133 87.6483 19.4533 88.155 19.76C88.675 20.0533 89.2217 20.2 89.795 20.2C90.3817 20.2 90.9283 20.0533 91.435 19.76C91.9417 19.4667 92.3483 19.04 92.655 18.48C92.975 17.9067 93.135 17.24 93.135 16.48ZM104.13 10.8C104.97 10.8 105.716 10.98 106.37 11.34C107.036 11.7 107.556 12.2333 107.93 12.94C108.316 13.6467 108.51 14.5 108.51 15.5V22H106.25V15.84C106.25 14.8533 106.003 14.1 105.51 13.58C105.016 13.0467 104.343 12.78 103.49 12.78C102.636 12.78 101.956 13.0467 101.45 13.58C100.956 14.1 100.71 14.8533 100.71 15.84V22H98.4297V7.2H100.71V12.26C101.096 11.7933 101.583 11.4333 102.17 11.18C102.77 10.9267 103.423 10.8 104.13 10.8ZM127.373 24.52L124.933 21.88C124.333 22.0533 123.673 22.14 122.953 22.14C121.66 22.14 120.467 21.84 119.373 21.24C118.293 20.6267 117.433 19.78 116.793 18.7C116.167 17.6067 115.853 16.38 115.853 15.02C115.853 13.66 116.167 12.44 116.793 11.36C117.433 10.28 118.293 9.44 119.373 8.84C120.467 8.22667 121.66 7.92 122.953 7.92C124.26 7.92 125.453 8.22667 126.533 8.84C127.627 9.44 128.487 10.28 129.113 11.36C129.74 12.44 130.053 13.66 130.053 15.02C130.053 16.3 129.773 17.46 129.213 18.5C128.667 19.5267 127.907 20.3533 126.933 20.98L130.273 24.52H127.373ZM118.193 15.02C118.193 16.0467 118.393 16.9533 118.793 17.74C119.207 18.5133 119.773 19.1133 120.493 19.54C121.213 19.9533 122.033 20.16 122.953 20.16C123.873 20.16 124.693 19.9533 125.413 19.54C126.133 19.1133 126.693 18.5133 127.093 17.74C127.507 16.9533 127.713 16.0467 127.713 15.02C127.713 13.9933 127.507 13.0933 127.093 12.32C126.693 11.5467 126.133 10.9533 125.413 10.54C124.693 10.1267 123.873 9.92 122.953 9.92C122.033 9.92 121.213 10.1267 120.493 10.54C119.773 10.9533 119.207 11.5467 118.793 12.32C118.393 13.0933 118.193 13.9933 118.193 15.02ZM142.335 10.98V22H140.055V20.7C139.695 21.1533 139.222 21.5133 138.635 21.78C138.062 22.0333 137.449 22.16 136.795 22.16C135.929 22.16 135.149 21.98 134.455 21.62C133.775 21.26 133.235 20.7267 132.835 20.02C132.449 19.3133 132.255 18.46 132.255 17.46V10.98H134.515V17.12C134.515 18.1067 134.762 18.8667 135.255 19.4C135.749 19.92 136.422 20.18 137.275 20.18C138.129 20.18 138.802 19.92 139.295 19.4C139.802 18.8667 140.055 18.1067 140.055 17.12V10.98H142.335ZM144.584 16.44C144.584 15.3333 144.81 14.3533 145.264 13.5C145.73 12.6467 146.357 11.9867 147.144 11.52C147.944 11.04 148.824 10.8 149.784 10.8C150.65 10.8 151.404 10.9733 152.044 11.32C152.697 11.6533 153.217 12.0733 153.604 12.58V10.98H155.904V22H153.604V20.36C153.217 20.88 152.69 21.3133 152.024 21.66C151.357 22.0067 150.597 22.18 149.744 22.18C148.797 22.18 147.93 21.94 147.144 21.46C146.357 20.9667 145.73 20.2867 145.264 19.42C144.81 18.54 144.584 17.5467 144.584 16.44ZM153.604 16.48C153.604 15.72 153.444 15.06 153.124 14.5C152.817 13.94 152.41 13.5133 151.904 13.22C151.397 12.9267 150.85 12.78 150.264 12.78C149.677 12.78 149.13 12.9267 148.624 13.22C148.117 13.5 147.704 13.92 147.384 14.48C147.077 15.0267 146.924 15.68 146.924 16.44C146.924 17.2 147.077 17.8667 147.384 18.44C147.704 19.0133 148.117 19.4533 148.624 19.76C149.144 20.0533 149.69 20.2 150.264 20.2C150.85 20.2 151.397 20.0533 151.904 19.76C152.41 19.4667 152.817 19.04 153.124 18.48C153.444 17.9067 153.604 17.24 153.604 16.48ZM161.178 7.2V22H158.898V7.2H161.178ZM165.332 9.52C164.919 9.52 164.572 9.38 164.292 9.1C164.012 8.82 163.872 8.47333 163.872 8.06C163.872 7.64667 164.012 7.3 164.292 7.02C164.572 6.74 164.919 6.6 165.332 6.6C165.732 6.6 166.072 6.74 166.352 7.02C166.632 7.3 166.772 7.64667 166.772 8.06C166.772 8.47333 166.632 8.82 166.352 9.1C166.072 9.38 165.732 9.52 165.332 9.52ZM166.452 10.98V22H164.172V10.98H166.452ZM172.105 12.84V18.94C172.105 19.3533 172.199 19.6533 172.385 19.84C172.585 20.0133 172.919 20.1 173.385 20.1H174.785V22H172.985C171.959 22 171.172 21.76 170.625 21.28C170.079 20.8 169.805 20.02 169.805 18.94V12.84H168.505V10.98H169.805V8.24H172.105V10.98H174.785V12.84H172.105ZM186.807 10.98L180.047 27.18H177.687L179.927 21.82L175.587 10.98H178.127L181.227 19.38L184.447 10.98H186.807Z" fill="#484848"/>
<path d="M64.688 44.6C64.688 43.6933 64.8693 42.904 65.232 42.232C65.5947 41.5493 66.096 41.0213 66.736 40.648C67.3867 40.2747 68.128 40.088 68.96 40.088C70.0373 40.088 70.9227 40.3493 71.616 40.872C72.32 41.3947 72.784 42.12 73.008 43.048H71.44C71.2907 42.5147 70.9973 42.0933 70.56 41.784C70.1333 41.4747 69.6 41.32 68.96 41.32C68.128 41.32 67.456 41.608 66.944 42.184C66.432 42.7493 66.176 43.5547 66.176 44.6C66.176 45.656 66.432 46.472 66.944 47.048C67.456 47.624 68.128 47.912 68.96 47.912C69.6 47.912 70.1333 47.7627 70.56 47.464C70.9867 47.1653 71.28 46.7387 71.44 46.184H73.008C72.7733 47.08 72.304 47.8 71.6 48.344C70.896 48.8773 70.016 49.144 68.96 49.144C68.128 49.144 67.3867 48.9573 66.736 48.584C66.096 48.2107 65.5947 47.6827 65.232 47C64.8693 46.3173 64.688 45.5173 64.688 44.6ZM76.4068 41.656C76.6628 41.1547 77.0254 40.7653 77.4948 40.488C77.9748 40.2107 78.5561 40.072 79.2388 40.072V41.576H78.8548C77.2228 41.576 76.4068 42.4613 76.4068 44.232V49H74.9508V40.232H76.4068V41.656ZM80.3755 44.584C80.3755 43.688 80.5568 42.904 80.9195 42.232C81.2822 41.5493 81.7782 41.0213 82.4075 40.648C83.0475 40.2747 83.7568 40.088 84.5355 40.088C85.3035 40.088 85.9702 40.2533 86.5355 40.584C87.1008 40.9147 87.5222 41.3307 87.7995 41.832V40.232H89.2715V49H87.7995V47.368C87.5115 47.88 87.0795 48.3067 86.5035 48.648C85.9382 48.9787 85.2768 49.144 84.5195 49.144C83.7408 49.144 83.0368 48.952 82.4075 48.568C81.7782 48.184 81.2822 47.6453 80.9195 46.952C80.5568 46.2587 80.3755 45.4693 80.3755 44.584ZM87.7995 44.6C87.7995 43.9387 87.6662 43.3627 87.3995 42.872C87.1328 42.3813 86.7702 42.008 86.3115 41.752C85.8635 41.4853 85.3675 41.352 84.8235 41.352C84.2795 41.352 83.7835 41.48 83.3355 41.736C82.8875 41.992 82.5302 42.3653 82.2635 42.856C81.9968 43.3467 81.8635 43.9227 81.8635 44.584C81.8635 45.256 81.9968 45.8427 82.2635 46.344C82.5302 46.8347 82.8875 47.2133 83.3355 47.48C83.7835 47.736 84.2795 47.864 84.8235 47.864C85.3675 47.864 85.8635 47.736 86.3115 47.48C86.7702 47.2133 87.1328 46.8347 87.3995 46.344C87.6662 45.8427 87.7995 45.2613 87.7995 44.6ZM95.3 41.432H93.46V49H92.004V41.432H90.868V40.232H92.004V39.608C92.004 38.6267 92.2547 37.912 92.756 37.464C93.268 37.0053 94.084 36.776 95.204 36.776V37.992C94.564 37.992 94.1107 38.12 93.844 38.376C93.588 38.6213 93.46 39.032 93.46 39.608V40.232H95.3V41.432ZM98.7736 41.432V46.6C98.7736 47.0267 98.8643 47.3307 99.0456 47.512C99.227 47.6827 99.5416 47.768 99.9896 47.768H101.062V49H99.7496C98.939 49 98.331 48.8133 97.9256 48.44C97.5203 48.0667 97.3176 47.4533 97.3176 46.6V41.432H96.1816V40.232H97.3176V38.024H98.7736V40.232H101.062V41.432H98.7736ZM110.826 44.28C110.826 44.5573 110.81 44.8507 110.778 45.16H103.77C103.823 46.024 104.116 46.7013 104.65 47.192C105.194 47.672 105.85 47.912 106.618 47.912C107.247 47.912 107.77 47.768 108.186 47.48C108.612 47.1813 108.911 46.7867 109.082 46.296H110.65C110.415 47.1387 109.946 47.8267 109.242 48.36C108.538 48.8827 107.663 49.144 106.618 49.144C105.786 49.144 105.039 48.9573 104.378 48.584C103.727 48.2107 103.215 47.6827 102.842 47C102.468 46.3067 102.282 45.5067 102.282 44.6C102.282 43.6933 102.463 42.8987 102.826 42.216C103.188 41.5333 103.695 41.0107 104.346 40.648C105.007 40.2747 105.764 40.088 106.618 40.088C107.45 40.088 108.186 40.2693 108.826 40.632C109.466 40.9947 109.956 41.496 110.298 42.136C110.65 42.7653 110.826 43.48 110.826 44.28ZM109.322 43.976C109.322 43.4213 109.199 42.9467 108.954 42.552C108.708 42.1467 108.372 41.8427 107.946 41.64C107.53 41.4267 107.066 41.32 106.554 41.32C105.818 41.32 105.188 41.5547 104.666 42.024C104.154 42.4933 103.86 43.144 103.786 43.976H109.322ZM112.204 44.584C112.204 43.688 112.385 42.904 112.748 42.232C113.11 41.5493 113.606 41.0213 114.236 40.648C114.876 40.2747 115.59 40.088 116.38 40.088C117.062 40.088 117.697 40.248 118.284 40.568C118.87 40.8773 119.318 41.288 119.628 41.8V37.16H121.1V49H119.628V47.352C119.34 47.8747 118.913 48.3067 118.348 48.648C117.782 48.9787 117.121 49.144 116.364 49.144C115.585 49.144 114.876 48.952 114.236 48.568C113.606 48.184 113.11 47.6453 112.748 46.952C112.385 46.2587 112.204 45.4693 112.204 44.584ZM119.628 44.6C119.628 43.9387 119.494 43.3627 119.228 42.872C118.961 42.3813 118.598 42.008 118.14 41.752C117.692 41.4853 117.196 41.352 116.652 41.352C116.108 41.352 115.612 41.48 115.164 41.736C114.716 41.992 114.358 42.3653 114.092 42.856C113.825 43.3467 113.692 43.9227 113.692 44.584C113.692 45.256 113.825 45.8427 114.092 46.344C114.358 46.8347 114.716 47.2133 115.164 47.48C115.612 47.736 116.108 47.864 116.652 47.864C117.196 47.864 117.692 47.736 118.14 47.48C118.598 47.2133 118.961 46.8347 119.228 46.344C119.494 45.8427 119.628 45.2613 119.628 44.6ZM131.394 41.432H129.554V49H128.098V41.432H126.962V40.232H128.098V39.608C128.098 38.6267 128.348 37.912 128.85 37.464C129.362 37.0053 130.178 36.776 131.298 36.776V37.992C130.658 37.992 130.204 38.12 129.938 38.376C129.682 38.6213 129.554 39.032 129.554 39.608V40.232H131.394V41.432ZM134.547 41.656C134.803 41.1547 135.166 40.7653 135.635 40.488C136.115 40.2107 136.697 40.072 137.379 40.072V41.576H136.995C135.363 41.576 134.547 42.4613 134.547 44.232V49H133.091V40.232H134.547V41.656ZM142.884 49.144C142.063 49.144 141.316 48.9573 140.644 48.584C139.983 48.2107 139.46 47.6827 139.076 47C138.703 46.3067 138.516 45.5067 138.516 44.6C138.516 43.704 138.708 42.9147 139.092 42.232C139.487 41.5387 140.02 41.0107 140.692 40.648C141.364 40.2747 142.116 40.088 142.948 40.088C143.78 40.088 144.532 40.2747 145.204 40.648C145.876 41.0107 146.404 41.5333 146.788 42.216C147.183 42.8987 147.38 43.6933 147.38 44.6C147.38 45.5067 147.177 46.3067 146.772 47C146.377 47.6827 145.839 48.2107 145.156 48.584C144.473 48.9573 143.716 49.144 142.884 49.144ZM142.884 47.864C143.407 47.864 143.897 47.7413 144.356 47.496C144.815 47.2507 145.183 46.8827 145.46 46.392C145.748 45.9013 145.892 45.304 145.892 44.6C145.892 43.896 145.753 43.2987 145.476 42.808C145.199 42.3173 144.836 41.9547 144.388 41.72C143.94 41.4747 143.455 41.352 142.932 41.352C142.399 41.352 141.908 41.4747 141.46 41.72C141.023 41.9547 140.671 42.3173 140.404 42.808C140.137 43.2987 140.004 43.896 140.004 44.6C140.004 45.3147 140.132 45.9173 140.388 46.408C140.655 46.8987 141.007 47.2667 141.444 47.512C141.881 47.7467 142.361 47.864 142.884 47.864ZM159.839 40.072C160.521 40.072 161.129 40.216 161.663 40.504C162.196 40.7813 162.617 41.2027 162.927 41.768C163.236 42.3333 163.391 43.0213 163.391 43.832V49H161.951V44.04C161.951 43.1653 161.732 42.4987 161.295 42.04C160.868 41.5707 160.287 41.336 159.551 41.336C158.793 41.336 158.191 41.5813 157.743 42.072C157.295 42.552 157.071 43.2507 157.071 44.168V49H155.631V44.04C155.631 43.1653 155.412 42.4987 154.975 42.04C154.548 41.5707 153.967 41.336 153.231 41.336C152.473 41.336 151.871 41.5813 151.423 42.072C150.975 42.552 150.751 43.2507 150.751 44.168V49H149.295V40.232H150.751V41.496C151.039 41.0373 151.423 40.6853 151.903 40.44C152.393 40.1947 152.932 40.072 153.519 40.072C154.255 40.072 154.905 40.2373 155.471 40.568C156.036 40.8987 156.457 41.384 156.735 42.024C156.98 41.4053 157.385 40.9253 157.951 40.584C158.516 40.2427 159.145 40.072 159.839 40.072ZM171.821 41.432V46.6C171.821 47.0267 171.911 47.3307 172.093 47.512C172.274 47.6827 172.589 47.768 173.036 47.768H174.109V49H172.797C171.986 49 171.378 48.8133 170.973 48.44C170.567 48.0667 170.365 47.4533 170.365 46.6V41.432H169.229V40.232H170.365V38.024H171.821V40.232H174.109V41.432H171.821ZM179.697 49.144C178.875 49.144 178.129 48.9573 177.457 48.584C176.795 48.2107 176.273 47.6827 175.889 47C175.515 46.3067 175.329 45.5067 175.329 44.6C175.329 43.704 175.521 42.9147 175.905 42.232C176.299 41.5387 176.833 41.0107 177.505 40.648C178.177 40.2747 178.929 40.088 179.761 40.088C180.593 40.088 181.345 40.2747 182.017 40.648C182.689 41.0107 183.217 41.5333 183.601 42.216C183.995 42.8987 184.193 43.6933 184.193 44.6C184.193 45.5067 183.99 46.3067 183.585 47C183.19 47.6827 182.651 48.2107 181.969 48.584C181.286 48.9573 180.529 49.144 179.697 49.144ZM179.697 47.864C180.219 47.864 180.71 47.7413 181.169 47.496C181.627 47.2507 181.995 46.8827 182.273 46.392C182.561 45.9013 182.705 45.304 182.705 44.6C182.705 43.896 182.566 43.2987 182.289 42.808C182.011 42.3173 181.649 41.9547 181.201 41.72C180.753 41.4747 180.267 41.352 179.745 41.352C179.211 41.352 178.721 41.4747 178.273 41.72C177.835 41.9547 177.483 42.3173 177.217 42.808C176.95 43.2987 176.817 43.896 176.817 44.6C176.817 45.3147 176.945 45.9173 177.201 46.408C177.467 46.8987 177.819 47.2667 178.257 47.512C178.694 47.7467 179.174 47.864 179.697 47.864ZM187.563 41.848C187.851 41.3467 188.278 40.9307 188.843 40.6C189.419 40.2587 190.086 40.088 190.843 40.088C191.622 40.088 192.326 40.2747 192.955 40.648C193.595 41.0213 194.096 41.5493 194.459 42.232C194.822 42.904 195.003 43.688 195.003 44.584C195.003 45.4693 194.822 46.2587 194.459 46.952C194.096 47.6453 193.595 48.184 192.955 48.568C192.326 48.952 191.622 49.144 190.843 49.144C190.096 49.144 189.435 48.9787 188.859 48.648C188.294 48.3067 187.862 47.8853 187.563 47.384V53.16H186.107V40.232H187.563V41.848ZM193.515 44.584C193.515 43.9227 193.382 43.3467 193.115 42.856C192.848 42.3653 192.486 41.992 192.027 41.736C191.579 41.48 191.083 41.352 190.539 41.352C190.006 41.352 189.51 41.4853 189.051 41.752C188.603 42.008 188.24 42.3867 187.963 42.888C187.696 43.3787 187.563 43.9493 187.563 44.6C187.563 45.2613 187.696 45.8427 187.963 46.344C188.24 46.8347 188.603 47.2133 189.051 47.48C189.51 47.736 190.006 47.864 190.539 47.864C191.083 47.864 191.579 47.736 192.027 47.48C192.486 47.2133 192.848 46.8347 193.115 46.344C193.382 45.8427 193.515 45.256 193.515 44.584ZM211.729 40.072C212.412 40.072 213.02 40.216 213.553 40.504C214.086 40.7813 214.508 41.2027 214.817 41.768C215.126 42.3333 215.281 43.0213 215.281 43.832V49H213.841V44.04C213.841 43.1653 213.622 42.4987 213.185 42.04C212.758 41.5707 212.177 41.336 211.441 41.336C210.684 41.336 210.081 41.5813 209.633 42.072C209.185 42.552 208.961 43.2507 208.961 44.168V49H207.521V44.04C207.521 43.1653 207.302 42.4987 206.865 42.04C206.438 41.5707 205.857 41.336 205.121 41.336C204.364 41.336 203.761 41.5813 203.313 42.072C202.865 42.552 202.641 43.2507 202.641 44.168V49H201.185V40.232H202.641V41.496C202.929 41.0373 203.313 40.6853 203.793 40.44C204.284 40.1947 204.822 40.072 205.409 40.072C206.145 40.072 206.796 40.2373 207.361 40.568C207.926 40.8987 208.348 41.384 208.625 42.024C208.87 41.4053 209.276 40.9253 209.841 40.584C210.406 40.2427 211.036 40.072 211.729 40.072ZM217.126 44.584C217.126 43.688 217.307 42.904 217.67 42.232C218.032 41.5493 218.528 41.0213 219.158 40.648C219.798 40.2747 220.507 40.088 221.286 40.088C222.054 40.088 222.72 40.2533 223.286 40.584C223.851 40.9147 224.272 41.3307 224.55 41.832V40.232H226.022V49H224.55V47.368C224.262 47.88 223.83 48.3067 223.254 48.648C222.688 48.9787 222.027 49.144 221.27 49.144C220.491 49.144 219.787 48.952 219.158 48.568C218.528 48.184 218.032 47.6453 217.67 46.952C217.307 46.2587 217.126 45.4693 217.126 44.584ZM224.55 44.6C224.55 43.9387 224.416 43.3627 224.15 42.872C223.883 42.3813 223.52 42.008 223.062 41.752C222.614 41.4853 222.118 41.352 221.574 41.352C221.03 41.352 220.534 41.48 220.086 41.736C219.638 41.992 219.28 42.3653 219.014 42.856C218.747 43.3467 218.614 43.9227 218.614 44.584C218.614 45.256 218.747 45.8427 219.014 46.344C219.28 46.8347 219.638 47.2133 220.086 47.48C220.534 47.736 221.03 47.864 221.574 47.864C222.118 47.864 222.614 47.736 223.062 47.48C223.52 47.2133 223.883 46.8347 224.15 46.344C224.416 45.8427 224.55 45.2613 224.55 44.6ZM230.258 41.432V46.6C230.258 47.0267 230.349 47.3307 230.53 47.512C230.711 47.6827 231.026 47.768 231.474 47.768H232.546V49H231.234C230.423 49 229.815 48.8133 229.41 48.44C229.005 48.0667 228.802 47.4533 228.802 46.6V41.432H227.666V40.232H228.802V38.024H230.258V40.232H232.546V41.432H230.258ZM242.31 44.28C242.31 44.5573 242.294 44.8507 242.262 45.16H235.254C235.307 46.024 235.601 46.7013 236.134 47.192C236.678 47.672 237.334 47.912 238.102 47.912C238.731 47.912 239.254 47.768 239.67 47.48C240.097 47.1813 240.395 46.7867 240.566 46.296H242.134C241.899 47.1387 241.43 47.8267 240.726 48.36C240.022 48.8827 239.147 49.144 238.102 49.144C237.27 49.144 236.523 48.9573 235.862 48.584C235.211 48.2107 234.699 47.6827 234.326 47C233.953 46.3067 233.766 45.5067 233.766 44.6C233.766 43.6933 233.947 42.8987 234.31 42.216C234.673 41.5333 235.179 41.0107 235.83 40.648C236.491 40.2747 237.249 40.088 238.102 40.088C238.934 40.088 239.67 40.2693 240.31 40.632C240.95 40.9947 241.441 41.496 241.782 42.136C242.134 42.7653 242.31 43.48 242.31 44.28ZM240.806 43.976C240.806 43.4213 240.683 42.9467 240.438 42.552C240.193 42.1467 239.857 41.8427 239.43 41.64C239.014 41.4267 238.55 41.32 238.038 41.32C237.302 41.32 236.673 41.5547 236.15 42.024C235.638 42.4933 235.345 43.144 235.27 43.976H240.806ZM245.688 41.656C245.944 41.1547 246.307 40.7653 246.776 40.488C247.256 40.2107 247.837 40.072 248.52 40.072V41.576H248.136C246.504 41.576 245.688 42.4613 245.688 44.232V49H244.232V40.232H245.688V41.656ZM250.953 38.808C250.675 38.808 250.441 38.712 250.249 38.52C250.057 38.328 249.961 38.0933 249.961 37.816C249.961 37.5387 250.057 37.304 250.249 37.112C250.441 36.92 250.675 36.824 250.953 36.824C251.219 36.824 251.443 36.92 251.625 37.112C251.817 37.304 251.913 37.5387 251.913 37.816C251.913 38.0933 251.817 38.328 251.625 38.52C251.443 38.712 251.219 38.808 250.953 38.808ZM251.657 40.232V49H250.201V40.232H251.657ZM253.594 44.584C253.594 43.688 253.776 42.904 254.138 42.232C254.501 41.5493 254.997 41.0213 255.626 40.648C256.266 40.2747 256.976 40.088 257.754 40.088C258.522 40.088 259.189 40.2533 259.754 40.584C260.32 40.9147 260.741 41.3307 261.018 41.832V40.232H262.49V49H261.018V47.368C260.73 47.88 260.298 48.3067 259.722 48.648C259.157 48.9787 258.496 49.144 257.738 49.144C256.96 49.144 256.256 48.952 255.626 48.568C254.997 48.184 254.501 47.6453 254.138 46.952C253.776 46.2587 253.594 45.4693 253.594 44.584ZM261.018 44.6C261.018 43.9387 260.885 43.3627 260.618 42.872C260.352 42.3813 259.989 42.008 259.53 41.752C259.082 41.4853 258.586 41.352 258.042 41.352C257.498 41.352 257.002 41.48 256.554 41.736C256.106 41.992 255.749 42.3653 255.482 42.856C255.216 43.3467 255.082 43.9227 255.082 44.584C255.082 45.256 255.216 45.8427 255.482 46.344C255.749 46.8347 256.106 47.2133 256.554 47.48C257.002 47.736 257.498 47.864 258.042 47.864C258.586 47.864 259.082 47.736 259.53 47.48C259.989 47.2133 260.352 46.8347 260.618 46.344C260.885 45.8427 261.018 45.2613 261.018 44.6ZM266.407 37.16V49H264.951V37.16H266.407ZM271.992 49.144C271.32 49.144 270.718 49.032 270.184 48.808C269.651 48.5733 269.23 48.2533 268.92 47.848C268.611 47.432 268.44 46.9573 268.408 46.424H269.912C269.955 46.8613 270.158 47.2187 270.52 47.496C270.894 47.7733 271.379 47.912 271.976 47.912C272.531 47.912 272.968 47.7893 273.288 47.544C273.608 47.2987 273.768 46.9893 273.768 46.616C273.768 46.232 273.598 45.9493 273.256 45.768C272.915 45.576 272.387 45.3893 271.672 45.208C271.022 45.0373 270.488 44.8667 270.072 44.696C269.667 44.5147 269.315 44.2533 269.016 43.912C268.728 43.56 268.584 43.1013 268.584 42.536C268.584 42.088 268.718 41.6773 268.984 41.304C269.251 40.9307 269.63 40.6373 270.12 40.424C270.611 40.2 271.171 40.088 271.8 40.088C272.771 40.088 273.555 40.3333 274.152 40.824C274.75 41.3147 275.07 41.9867 275.112 42.84H273.656C273.624 42.3813 273.438 42.0133 273.096 41.736C272.766 41.4587 272.318 41.32 271.752 41.32C271.23 41.32 270.814 41.432 270.504 41.656C270.195 41.88 270.04 42.1733 270.04 42.536C270.04 42.824 270.131 43.064 270.312 43.256C270.504 43.4373 270.739 43.5867 271.016 43.704C271.304 43.8107 271.699 43.9333 272.2 44.072C272.83 44.2427 273.342 44.4133 273.736 44.584C274.131 44.744 274.467 44.9893 274.744 45.32C275.032 45.6507 275.182 46.0827 275.192 46.616C275.192 47.096 275.059 47.528 274.792 47.912C274.526 48.296 274.147 48.6 273.656 48.824C273.176 49.0373 272.622 49.144 271.992 49.144Z" fill="#484848"/>
<path d="M17.207 18.3743L16.077 24.9632C16.0175 25.2726 16.0468 25.5925 16.1615 25.8858C16.2761 26.179 16.4713 26.4335 16.7244 26.6196C16.9733 26.8068 17.2694 26.9204 17.5792 26.9475C17.889 26.9746 18.2001 26.9142 18.4775 26.773L24.5858 23.7055L30.3764 26.7362C30.6528 26.8859 30.9656 26.9545 31.279 26.934C31.5924 26.9136 31.8937 26.805 32.1486 26.6208C32.4035 26.4365 32.6016 26.1839 32.7202 25.8918C32.8389 25.5998 32.8734 25.2801 32.8197 24.9693L31.6897 18.4049L36.4419 13.7362C36.6653 13.5183 36.8235 13.2419 36.8985 12.9383C36.9736 12.6347 36.9624 12.3161 36.8664 12.0185C36.7704 11.721 36.5934 11.4564 36.3553 11.2547C36.1173 11.053 35.8278 10.9223 35.5196 10.8773L28.8921 9.90802L25.9357 3.9203C25.7956 3.64144 25.5806 3.40748 25.3151 3.24487C25.0496 3.08225 24.7441 2.99746 24.4331 3.00006C24.1231 2.9986 23.8189 3.08394 23.5545 3.24649C23.2902 3.40904 23.0762 3.64238 22.9365 3.9203L19.974 9.90802L13.3466 10.8651C13.0353 10.9073 12.7423 11.0369 12.5012 11.239C12.2601 11.4411 12.0807 11.7075 11.9837 12.0075C11.8866 12.3075 11.8759 12.6289 11.9528 12.9348C12.0297 13.2406 12.191 13.5184 12.4181 13.7362L17.207 18.3743ZM20.707 11.6626C20.8508 11.6385 20.9867 11.5803 21.1036 11.4928C21.2205 11.4053 21.3149 11.291 21.3789 11.1596L24.4331 5.02459L27.4872 11.1596C27.553 11.2933 27.6502 11.409 27.7705 11.4967C27.8907 11.5843 28.0304 11.6413 28.1774 11.6626L34.9454 12.6442L30.0588 17.3927C29.9513 17.4964 29.8706 17.625 29.8237 17.7672C29.7769 17.9094 29.7653 18.0609 29.79 18.2086L30.9445 24.9264L25.0256 21.8282C24.8961 21.7615 24.7527 21.7267 24.6072 21.7267C24.4616 21.7267 24.3182 21.7615 24.1887 21.8282L17.9583 24.9693L19.1189 18.2209C19.1392 18.0736 19.1238 17.9236 19.0738 17.7836C19.0238 17.6436 18.9407 17.5179 18.8318 17.4172L13.9452 12.6688L20.707 11.6626Z" fill="black"/>
<path d="M50.0878 30.3007C49.781 29.9447 49.4072 29.6531 48.9879 29.4425C48.5687 29.232 48.1121 29.1066 47.6445 29.0737C47.177 29.0414 46.7077 29.1041 46.2649 29.258C45.822 29.4119 45.4145 29.6538 45.0668 29.9694L36.6068 37.6013C36.5848 37.4317 36.5522 37.2637 36.5091 37.0982C36.367 36.5666 36.1122 36.0722 35.7622 35.6486C35.4121 35.2251 34.9752 34.8825 34.4812 34.6442C32.9113 33.9817 30.7307 34.2884 28.6233 34.5951C27.3908 34.8375 26.1319 34.9159 24.879 34.8283C24.3214 34.6878 23.7822 34.4818 23.2725 34.2148C21.6721 33.497 19.4793 32.5154 15.3989 33.4172C13.2923 33.9637 11.3573 35.0357 9.77323 36.5338V34.2884C9.77323 34.0443 9.6767 33.8103 9.50487 33.6377C9.33304 33.4651 9.09999 33.3682 8.85699 33.3682H0.91624C0.673238 33.3682 0.440189 33.4651 0.26836 33.6377C0.0965321 33.8103 0 34.0443 0 34.2884V52.0798C0 52.3238 0.0965321 52.5579 0.26836 52.7305C0.440189 52.9031 0.673238 53 0.91624 53H8.85699C9.09999 53 9.33304 52.9031 9.50487 52.7305C9.6767 52.5579 9.77323 52.3238 9.77323 52.0798V50.8037C10.9949 51.092 16.5412 52.3865 20.6398 52.3865C24.9156 52.3865 30.1443 51.4049 33.3634 50C39.2945 47.4172 49.0616 36.27 49.8557 35.3681C50.5437 34.7201 50.9528 33.8281 50.9962 32.8817C51.0395 31.9354 50.7136 31.0094 50.0878 30.3007ZM7.94075 51.1595H1.83248V35.2086H7.94075V51.1595ZM48.5852 34.0369L48.4996 34.1228C48.3958 34.2393 38.305 45.8467 32.6182 48.319C29.6251 49.6258 24.6896 50.546 20.6398 50.546C16.364 50.546 10.0542 48.9755 9.99313 48.9632C9.9201 48.9543 9.84626 48.9543 9.77323 48.9632V39.1473C10.439 38.3804 12.7907 35.8896 15.796 35.227C19.2899 34.4602 21.0124 35.227 22.5151 35.908C23.1633 36.2287 23.8486 36.4678 24.5552 36.6197C25.9978 36.7563 27.4525 36.6819 28.8738 36.3988C30.6513 36.1534 32.667 35.8712 33.7604 36.3313C33.9955 36.4671 34.201 36.6489 34.3647 36.866C34.5284 37.0831 34.6469 37.3311 34.7133 37.5951C34.802 37.9573 34.8034 38.3355 34.7174 38.6982C34.6313 39.061 34.4603 39.398 34.2185 39.681C32.8258 41.5583 24.3537 44.3681 20.8781 44.0921C20.6351 44.0734 20.3946 44.1524 20.2096 44.3117C20.0246 44.4711 19.9102 44.6977 19.8916 44.9418C19.8729 45.1858 19.9516 45.4273 20.1103 45.6131C20.2689 45.7989 20.4946 45.9138 20.7376 45.9326C20.9269 45.9326 21.1346 45.9326 21.3484 45.9326C25.1416 45.9326 32.386 43.6872 35.037 41.4418L35.1042 41.4049L46.2457 31.3436C46.5805 31.0441 47.0197 30.8897 47.4674 30.9142C47.7016 30.9284 47.9306 30.9901 48.1406 31.0956C48.3505 31.201 48.5371 31.348 48.689 31.5277C49.0027 31.8761 49.1676 32.3343 49.1482 32.8036C49.1287 33.2729 48.9266 33.7158 48.5852 34.0369Z" fill="black"/>
<path d="M463.6 8.1L459.48 22H456.9L453.98 11.48L450.88 22L448.32 22.02L444.38 8.1H446.8L449.68 19.42L452.8 8.1H455.36L458.26 19.36L461.16 8.1H463.6ZM464.72 16.44C464.72 15.3333 464.947 14.3533 465.4 13.5C465.867 12.6467 466.494 11.9867 467.28 11.52C468.08 11.04 468.96 10.8 469.92 10.8C470.787 10.8 471.54 10.9733 472.18 11.32C472.834 11.6533 473.354 12.0733 473.74 12.58V10.98H476.04V22H473.74V20.36C473.354 20.88 472.827 21.3133 472.16 21.66C471.494 22.0067 470.734 22.18 469.88 22.18C468.934 22.18 468.067 21.94 467.28 21.46C466.494 20.9667 465.867 20.2867 465.4 19.42C464.947 18.54 464.72 17.5467 464.72 16.44ZM473.74 16.48C473.74 15.72 473.58 15.06 473.26 14.5C472.954 13.94 472.547 13.5133 472.04 13.22C471.534 12.9267 470.987 12.78 470.4 12.78C469.814 12.78 469.267 12.9267 468.76 13.22C468.254 13.5 467.84 13.92 467.52 14.48C467.214 15.0267 467.06 15.68 467.06 16.44C467.06 17.2 467.214 17.8667 467.52 18.44C467.84 19.0133 468.254 19.4533 468.76 19.76C469.28 20.0533 469.827 20.2 470.4 20.2C470.987 20.2 471.534 20.0533 472.04 19.76C472.547 19.4667 472.954 19.04 473.26 18.48C473.58 17.9067 473.74 17.24 473.74 16.48ZM481.315 12.58C481.648 12.02 482.088 11.5867 482.635 11.28C483.195 10.96 483.855 10.8 484.615 10.8V13.16H484.035C483.142 13.16 482.462 13.3867 481.995 13.84C481.542 14.2933 481.315 15.08 481.315 16.2V22H479.035V10.98H481.315V12.58ZM488.991 12.58C489.324 12.02 489.764 11.5867 490.311 11.28C490.871 10.96 491.531 10.8 492.291 10.8V13.16H491.711C490.818 13.16 490.138 13.3867 489.671 13.84C489.218 14.2933 488.991 15.08 488.991 16.2V22H486.711V10.98H488.991V12.58ZM493.627 16.44C493.627 15.3333 493.853 14.3533 494.307 13.5C494.773 12.6467 495.4 11.9867 496.187 11.52C496.987 11.04 497.867 10.8 498.827 10.8C499.693 10.8 500.447 10.9733 501.087 11.32C501.74 11.6533 502.26 12.0733 502.647 12.58V10.98H504.947V22H502.647V20.36C502.26 20.88 501.733 21.3133 501.067 21.66C500.4 22.0067 499.64 22.18 498.787 22.18C497.84 22.18 496.973 21.94 496.187 21.46C495.4 20.9667 494.773 20.2867 494.307 19.42C493.853 18.54 493.627 17.5467 493.627 16.44ZM502.647 16.48C502.647 15.72 502.487 15.06 502.167 14.5C501.86 13.94 501.453 13.5133 500.947 13.22C500.44 12.9267 499.893 12.78 499.307 12.78C498.72 12.78 498.173 12.9267 497.667 13.22C497.16 13.5 496.747 13.92 496.427 14.48C496.12 15.0267 495.967 15.68 495.967 16.44C495.967 17.2 496.12 17.8667 496.427 18.44C496.747 19.0133 497.16 19.4533 497.667 19.76C498.187 20.0533 498.733 20.2 499.307 20.2C499.893 20.2 500.44 20.0533 500.947 19.76C501.453 19.4667 501.86 19.04 502.167 18.48C502.487 17.9067 502.647 17.24 502.647 16.48ZM513.501 10.8C514.368 10.8 515.141 10.98 515.821 11.34C516.515 11.7 517.055 12.2333 517.441 12.94C517.828 13.6467 518.021 14.5 518.021 15.5V22H515.761V15.84C515.761 14.8533 515.515 14.1 515.021 13.58C514.528 13.0467 513.855 12.78 513.001 12.78C512.148 12.78 511.468 13.0467 510.961 13.58C510.468 14.1 510.221 14.8533 510.221 15.84V22H507.941V10.98H510.221V12.24C510.595 11.7867 511.068 11.4333 511.641 11.18C512.228 10.9267 512.848 10.8 513.501 10.8ZM530.85 10.98L524.09 27.18H521.73L523.97 21.82L519.63 10.98H522.17L525.27 19.38L528.49 10.98H530.85ZM547.486 12.24C547.486 12.9467 547.319 13.6133 546.986 14.24C546.652 14.8667 546.119 15.38 545.386 15.78C544.652 16.1667 543.712 16.36 542.566 16.36H540.046V22H537.766V8.1H542.566C543.632 8.1 544.532 8.28667 545.266 8.66C546.012 9.02 546.566 9.51333 546.926 10.14C547.299 10.7667 547.486 11.4667 547.486 12.24ZM542.566 14.5C543.432 14.5 544.079 14.3067 544.506 13.92C544.932 13.52 545.146 12.96 545.146 12.24C545.146 10.72 544.286 9.96 542.566 9.96H540.046V14.5H542.566ZM551.94 12.58C552.273 12.02 552.713 11.5867 553.26 11.28C553.82 10.96 554.48 10.8 555.24 10.8V13.16H554.66C553.767 13.16 553.087 13.3867 552.62 13.84C552.167 14.2933 551.94 15.08 551.94 16.2V22H549.66V10.98H551.94V12.58ZM562.116 22.18C561.076 22.18 560.136 21.9467 559.296 21.48C558.456 21 557.796 20.3333 557.316 19.48C556.836 18.6133 556.596 17.6133 556.596 16.48C556.596 15.36 556.843 14.3667 557.336 13.5C557.829 12.6333 558.503 11.9667 559.356 11.5C560.209 11.0333 561.163 10.8 562.216 10.8C563.269 10.8 564.223 11.0333 565.076 11.5C565.929 11.9667 566.603 12.6333 567.096 13.5C567.589 14.3667 567.836 15.36 567.836 16.48C567.836 17.6 567.583 18.5933 567.076 19.46C566.569 20.3267 565.876 21 564.996 21.48C564.129 21.9467 563.169 22.18 562.116 22.18ZM562.116 20.2C562.703 20.2 563.249 20.06 563.756 19.78C564.276 19.5 564.696 19.08 565.016 18.52C565.336 17.96 565.496 17.28 565.496 16.48C565.496 15.68 565.343 15.0067 565.036 14.46C564.729 13.9 564.323 13.48 563.816 13.2C563.309 12.92 562.763 12.78 562.176 12.78C561.589 12.78 561.043 12.92 560.536 13.2C560.043 13.48 559.649 13.9 559.356 14.46C559.063 15.0067 558.916 15.68 558.916 16.48C558.916 17.6667 559.216 18.5867 559.816 19.24C560.429 19.88 561.196 20.2 562.116 20.2ZM572.75 12.84V18.94C572.75 19.3533 572.843 19.6533 573.03 19.84C573.23 20.0133 573.563 20.1 574.03 20.1H575.43V22H573.63C572.603 22 571.817 21.76 571.27 21.28C570.723 20.8 570.45 20.02 570.45 18.94V12.84H569.15V10.98H570.45V8.24H572.75V10.98H575.43V12.84H572.75ZM587.631 16.22C587.631 16.6333 587.605 17.0067 587.551 17.34H579.131C579.198 18.22 579.525 18.9267 580.111 19.46C580.698 19.9933 581.418 20.26 582.271 20.26C583.498 20.26 584.365 19.7467 584.871 18.72H587.331C586.998 19.7333 586.391 20.5667 585.511 21.22C584.645 21.86 583.565 22.18 582.271 22.18C581.218 22.18 580.271 21.9467 579.431 21.48C578.605 21 577.951 20.3333 577.471 19.48C577.005 18.6133 576.771 17.6133 576.771 16.48C576.771 15.3467 576.998 14.3533 577.451 13.5C577.918 12.6333 578.565 11.9667 579.391 11.5C580.231 11.0333 581.191 10.8 582.271 10.8C583.311 10.8 584.238 11.0267 585.051 11.48C585.865 11.9333 586.498 12.5733 586.951 13.4C587.405 14.2133 587.631 15.1533 587.631 16.22ZM585.251 15.5C585.238 14.66 584.938 13.9867 584.351 13.48C583.765 12.9733 583.038 12.72 582.171 12.72C581.385 12.72 580.711 12.9733 580.151 13.48C579.591 13.9733 579.258 14.6467 579.151 15.5H585.251ZM589.115 16.48C589.115 15.3467 589.342 14.3533 589.795 13.5C590.262 12.6333 590.902 11.9667 591.715 11.5C592.528 11.0333 593.462 10.8 594.515 10.8C595.848 10.8 596.948 11.12 597.815 11.76C598.695 12.3867 599.288 13.2867 599.595 14.46H597.135C596.935 13.9133 596.615 13.4867 596.175 13.18C595.735 12.8733 595.182 12.72 594.515 12.72C593.582 12.72 592.835 13.0533 592.275 13.72C591.728 14.3733 591.455 15.2933 591.455 16.48C591.455 17.6667 591.728 18.5933 592.275 19.26C592.835 19.9267 593.582 20.26 594.515 20.26C595.835 20.26 596.708 19.68 597.135 18.52H599.595C599.275 19.64 598.675 20.5333 597.795 21.2C596.915 21.8533 595.822 22.18 594.515 22.18C593.462 22.18 592.528 21.9467 591.715 21.48C590.902 21 590.262 20.3333 589.795 19.48C589.342 18.6133 589.115 17.6133 589.115 16.48ZM604.527 12.84V18.94C604.527 19.3533 604.621 19.6533 604.807 19.84C605.007 20.0133 605.341 20.1 605.807 20.1H607.207V22H605.407C604.381 22 603.594 21.76 603.047 21.28C602.501 20.8 602.227 20.02 602.227 18.94V12.84H600.927V10.98H602.227V8.24H604.527V10.98H607.207V12.84H604.527ZM610.469 9.52C610.055 9.52 609.709 9.38 609.429 9.1C609.149 8.82 609.009 8.47333 609.009 8.06C609.009 7.64667 609.149 7.3 609.429 7.02C609.709 6.74 610.055 6.6 610.469 6.6C610.869 6.6 611.209 6.74 611.489 7.02C611.769 7.3 611.909 7.64667 611.909 8.06C611.909 8.47333 611.769 8.82 611.489 9.1C611.209 9.38 610.869 9.52 610.469 9.52ZM611.589 10.98V22H609.309V10.98H611.589ZM619.362 22.18C618.322 22.18 617.382 21.9467 616.542 21.48C615.702 21 615.042 20.3333 614.562 19.48C614.082 18.6133 613.842 17.6133 613.842 16.48C613.842 15.36 614.089 14.3667 614.582 13.5C615.075 12.6333 615.749 11.9667 616.602 11.5C617.455 11.0333 618.409 10.8 619.462 10.8C620.515 10.8 621.469 11.0333 622.322 11.5C623.175 11.9667 623.849 12.6333 624.342 13.5C624.835 14.3667 625.082 15.36 625.082 16.48C625.082 17.6 624.829 18.5933 624.322 19.46C623.815 20.3267 623.122 21 622.242 21.48C621.375 21.9467 620.415 22.18 619.362 22.18ZM619.362 20.2C619.949 20.2 620.495 20.06 621.002 19.78C621.522 19.5 621.942 19.08 622.262 18.52C622.582 17.96 622.742 17.28 622.742 16.48C622.742 15.68 622.589 15.0067 622.282 14.46C621.975 13.9 621.569 13.48 621.062 13.2C620.555 12.92 620.009 12.78 619.422 12.78C618.835 12.78 618.289 12.92 617.782 13.2C617.289 13.48 616.895 13.9 616.602 14.46C616.309 15.0067 616.162 15.68 616.162 16.48C616.162 17.6667 616.462 18.5867 617.062 19.24C617.675 19.88 618.442 20.2 619.362 20.2ZM632.896 10.8C633.763 10.8 634.536 10.98 635.216 11.34C635.909 11.7 636.449 12.2333 636.836 12.94C637.223 13.6467 637.416 14.5 637.416 15.5V22H635.156V15.84C635.156 14.8533 634.909 14.1 634.416 13.58C633.923 13.0467 633.249 12.78 632.396 12.78C631.543 12.78 630.863 13.0467 630.356 13.58C629.863 14.1 629.616 14.8533 629.616 15.84V22H627.336V10.98H629.616V12.24C629.989 11.7867 630.463 11.4333 631.036 11.18C631.623 10.9267 632.243 10.8 632.896 10.8Z" fill="#484848"/>
<path d="M450.288 49.112C449.253 49.112 448.309 48.872 447.456 48.392C446.603 47.9013 445.925 47.224 445.424 46.36C444.933 45.4853 444.688 44.504 444.688 43.416C444.688 42.328 444.933 41.352 445.424 40.488C445.925 39.6133 446.603 38.936 447.456 38.456C448.309 37.9653 449.253 37.72 450.288 37.72C451.333 37.72 452.283 37.9653 453.136 38.456C453.989 38.936 454.661 39.608 455.152 40.472C455.643 41.336 455.888 42.3173 455.888 43.416C455.888 44.5147 455.643 45.496 455.152 46.36C454.661 47.224 453.989 47.9013 453.136 48.392C452.283 48.872 451.333 49.112 450.288 49.112ZM450.288 47.848C451.067 47.848 451.765 47.6667 452.384 47.304C453.013 46.9413 453.504 46.424 453.856 45.752C454.219 45.08 454.4 44.3013 454.4 43.416C454.4 42.52 454.219 41.7413 453.856 41.08C453.504 40.408 453.019 39.8907 452.4 39.528C451.781 39.1653 451.077 38.984 450.288 38.984C449.499 38.984 448.795 39.1653 448.176 39.528C447.557 39.8907 447.067 40.408 446.704 41.08C446.352 41.7413 446.176 42.52 446.176 43.416C446.176 44.3013 446.352 45.08 446.704 45.752C447.067 46.424 447.557 46.9413 448.176 47.304C448.805 47.6667 449.509 47.848 450.288 47.848ZM461.074 47.656L463.794 40.232H465.346L461.906 49H460.21L456.77 40.232H458.338L461.074 47.656ZM474.779 44.28C474.779 44.5573 474.763 44.8507 474.731 45.16H467.723C467.776 46.024 468.07 46.7013 468.603 47.192C469.147 47.672 469.803 47.912 470.571 47.912C471.2 47.912 471.723 47.768 472.139 47.48C472.566 47.1813 472.864 46.7867 473.035 46.296H474.603C474.368 47.1387 473.899 47.8267 473.195 48.36C472.491 48.8827 471.616 49.144 470.571 49.144C469.739 49.144 468.992 48.9573 468.331 48.584C467.68 48.2107 467.168 47.6827 466.795 47C466.422 46.3067 466.235 45.5067 466.235 44.6C466.235 43.6933 466.416 42.8987 466.779 42.216C467.142 41.5333 467.648 41.0107 468.299 40.648C468.96 40.2747 469.718 40.088 470.571 40.088C471.403 40.088 472.139 40.2693 472.779 40.632C473.419 40.9947 473.91 41.496 474.251 42.136C474.603 42.7653 474.779 43.48 474.779 44.28ZM473.275 43.976C473.275 43.4213 473.152 42.9467 472.907 42.552C472.662 42.1467 472.326 41.8427 471.899 41.64C471.483 41.4267 471.019 41.32 470.507 41.32C469.771 41.32 469.142 41.5547 468.619 42.024C468.107 42.4933 467.814 43.144 467.739 43.976H473.275ZM478.157 41.656C478.413 41.1547 478.775 40.7653 479.245 40.488C479.725 40.2107 480.306 40.072 480.989 40.072V41.576H480.605C478.973 41.576 478.157 42.4613 478.157 44.232V49H476.701V40.232H478.157V41.656ZM486.519 47.832C487.874 46.744 488.935 45.8533 489.703 45.16C490.471 44.456 491.116 43.7253 491.639 42.968C492.172 42.2 492.439 41.448 492.439 40.712C492.439 40.0187 492.268 39.4747 491.927 39.08C491.596 38.6747 491.058 38.472 490.311 38.472C489.586 38.472 489.02 38.7013 488.615 39.16C488.22 39.608 488.007 40.2107 487.975 40.968H486.567C486.61 39.7733 486.972 38.8507 487.655 38.2C488.338 37.5493 489.218 37.224 490.295 37.224C491.394 37.224 492.263 37.528 492.903 38.136C493.554 38.744 493.879 39.5813 493.879 40.648C493.879 41.5333 493.612 42.3973 493.079 43.24C492.556 44.072 491.959 44.808 491.287 45.448C490.615 46.0773 489.756 46.8133 488.711 47.656H494.215V48.872H486.519V47.832ZM507.956 40.232L502.676 53.128H501.172L502.9 48.904L499.364 40.232H500.98L503.732 47.336L506.452 40.232H507.956ZM517.42 44.28C517.42 44.5573 517.404 44.8507 517.372 45.16H510.364C510.417 46.024 510.71 46.7013 511.244 47.192C511.788 47.672 512.444 47.912 513.212 47.912C513.841 47.912 514.364 47.768 514.78 47.48C515.206 47.1813 515.505 46.7867 515.676 46.296H517.244C517.009 47.1387 516.54 47.8267 515.836 48.36C515.132 48.8827 514.257 49.144 513.212 49.144C512.38 49.144 511.633 48.9573 510.972 48.584C510.321 48.2107 509.809 47.6827 509.436 47C509.062 46.3067 508.876 45.5067 508.876 44.6C508.876 43.6933 509.057 42.8987 509.42 42.216C509.782 41.5333 510.289 41.0107 510.94 40.648C511.601 40.2747 512.358 40.088 513.212 40.088C514.044 40.088 514.78 40.2693 515.42 40.632C516.06 40.9947 516.55 41.496 516.892 42.136C517.244 42.7653 517.42 43.48 517.42 44.28ZM515.916 43.976C515.916 43.4213 515.793 42.9467 515.548 42.552C515.302 42.1467 514.966 41.8427 514.54 41.64C514.124 41.4267 513.66 41.32 513.148 41.32C512.412 41.32 511.782 41.5547 511.26 42.024C510.748 42.4933 510.454 43.144 510.38 43.976H515.916ZM518.797 44.584C518.797 43.688 518.979 42.904 519.341 42.232C519.704 41.5493 520.2 41.0213 520.829 40.648C521.469 40.2747 522.179 40.088 522.957 40.088C523.725 40.088 524.392 40.2533 524.957 40.584C525.523 40.9147 525.944 41.3307 526.221 41.832V40.232H527.693V49H526.221V47.368C525.933 47.88 525.501 48.3067 524.925 48.648C524.36 48.9787 523.699 49.144 522.941 49.144C522.163 49.144 521.459 48.952 520.829 48.568C520.2 48.184 519.704 47.6453 519.341 46.952C518.979 46.2587 518.797 45.4693 518.797 44.584ZM526.221 44.6C526.221 43.9387 526.088 43.3627 525.821 42.872C525.555 42.3813 525.192 42.008 524.733 41.752C524.285 41.4853 523.789 41.352 523.245 41.352C522.701 41.352 522.205 41.48 521.757 41.736C521.309 41.992 520.952 42.3653 520.685 42.856C520.419 43.3467 520.285 43.9227 520.285 44.584C520.285 45.256 520.419 45.8427 520.685 46.344C520.952 46.8347 521.309 47.2133 521.757 47.48C522.205 47.736 522.701 47.864 523.245 47.864C523.789 47.864 524.285 47.736 524.733 47.48C525.192 47.2133 525.555 46.8347 525.821 46.344C526.088 45.8427 526.221 45.2613 526.221 44.6ZM531.61 41.656C531.866 41.1547 532.229 40.7653 532.698 40.488C533.178 40.2107 533.759 40.072 534.442 40.072V41.576H534.058C532.426 41.576 531.61 42.4613 531.61 44.232V49H530.154V40.232H531.61V41.656ZM539.227 49.144C538.555 49.144 537.952 49.032 537.419 48.808C536.885 48.5733 536.464 48.2533 536.155 47.848C535.845 47.432 535.675 46.9573 535.643 46.424H537.147C537.189 46.8613 537.392 47.2187 537.755 47.496C538.128 47.7733 538.613 47.912 539.211 47.912C539.765 47.912 540.203 47.7893 540.523 47.544C540.843 47.2987 541.003 46.9893 541.003 46.616C541.003 46.232 540.832 45.9493 540.491 45.768C540.149 45.576 539.621 45.3893 538.907 45.208C538.256 45.0373 537.723 44.8667 537.307 44.696C536.901 44.5147 536.549 44.2533 536.251 43.912C535.963 43.56 535.819 43.1013 535.819 42.536C535.819 42.088 535.952 41.6773 536.219 41.304C536.485 40.9307 536.864 40.6373 537.355 40.424C537.845 40.2 538.405 40.088 539.035 40.088C540.005 40.088 540.789 40.3333 541.387 40.824C541.984 41.3147 542.304 41.9867 542.347 42.84H540.891C540.859 42.3813 540.672 42.0133 540.331 41.736C540 41.4587 539.552 41.32 538.987 41.32C538.464 41.32 538.048 41.432 537.739 41.656C537.429 41.88 537.275 42.1733 537.275 42.536C537.275 42.824 537.365 43.064 537.547 43.256C537.739 43.4373 537.973 43.5867 538.251 43.704C538.539 43.8107 538.933 43.9333 539.435 44.072C540.064 44.2427 540.576 44.4133 540.971 44.584C541.365 44.744 541.701 44.9893 541.979 45.32C542.267 45.6507 542.416 46.0827 542.427 46.616C542.427 47.096 542.293 47.528 542.027 47.912C541.76 48.296 541.381 48.6 540.891 48.824C540.411 49.0373 539.856 49.144 539.227 49.144Z" fill="#484848"/>
<path d="M430.777 21.2508L427.52 17.6943L428.539 13.0042C428.634 12.5882 428.382 12.1722 427.972 12.037L423.36 10.5603L421.879 5.99501C421.742 5.58943 421.322 5.35025 420.902 5.43344L416.164 6.44218L412.571 3.21839C412.256 2.9272 411.762 2.9272 411.447 3.21839L407.854 6.44218L403.116 5.43344C402.696 5.33985 402.276 5.58943 402.14 5.99501L400.648 10.5603L396.025 12.037C395.616 12.1722 395.374 12.5882 395.458 13.0042L396.477 17.6943L393.221 21.2508C392.926 21.5628 392.926 22.0516 393.221 22.3636L396.477 25.9201L395.458 30.6102C395.364 31.0262 395.616 31.4422 396.025 31.5774L400.637 33.0541L400.826 33.6468L395.343 48.6947C395.217 49.0275 395.322 49.4018 395.605 49.6202C395.878 49.8386 396.267 49.8698 396.572 49.6826L402.171 46.2924L404.283 52.4384C404.398 52.7712 404.713 53 405.07 53H405.081C405.438 53 405.753 52.7816 405.869 52.4488L410.565 39.5953L411.447 40.3856C411.605 40.5312 411.804 40.604 412.014 40.604C412.225 40.604 412.414 40.5312 412.582 40.3856L413.464 39.5953L418.16 52.4488C418.276 52.7816 418.601 53 418.948 53H418.958C419.316 53 419.631 52.7712 419.746 52.4384L421.858 46.2924L427.457 49.6826C427.762 49.8698 428.15 49.8386 428.424 49.6202C428.697 49.4018 428.802 49.0275 428.686 48.6947L423.192 33.6572L423.381 33.0645L427.993 31.5878C428.403 31.4526 428.644 31.0366 428.56 30.6206L427.541 25.9305L430.798 22.374C431.071 22.0516 431.071 21.5732 430.777 21.2508ZM405.091 49.6618L403.411 44.7741C403.327 44.5349 403.138 44.3478 402.896 44.2542C402.654 44.1606 402.392 44.1918 402.171 44.327L397.717 47.0204L401.656 36.2363L402.108 37.6194C402.245 38.025 402.665 38.2641 403.085 38.1809L407.823 37.1722L409.189 38.3993L405.091 49.6618ZM426.27 47.0308L421.816 44.3374C421.595 44.2022 421.333 44.1814 421.091 44.2646C420.849 44.3478 420.66 44.5349 420.576 44.7845L418.895 49.6722L414.777 38.4097L416.143 37.1826L420.881 38.1913C421.301 38.2849 421.721 38.0354 421.858 37.6298L422.31 36.2467L426.27 47.0308ZM425.997 25.1298C425.818 25.3274 425.745 25.5977 425.797 25.8577L426.743 30.2359L422.446 31.6086C422.194 31.6918 421.984 31.8893 421.9 32.1493L421.49 33.3972L420.513 36.4027L416.09 35.4667C415.828 35.4147 415.555 35.4875 415.355 35.6643L412.004 38.6593L408.653 35.6539C408.495 35.5187 408.296 35.4355 408.085 35.4355C408.022 35.4355 407.97 35.4459 407.907 35.4563L403.484 36.3923L402.507 33.3869L402.097 32.1389C402.013 31.8893 401.814 31.6814 401.551 31.5982L397.265 30.2359L398.211 25.8577C398.263 25.5977 398.19 25.3274 398.011 25.1298L394.985 21.8124L398.021 18.495C398.2 18.2974 398.274 18.027 398.221 17.767L397.276 13.3889L401.572 12.0162C401.824 11.933 402.034 11.7354 402.119 11.4755L403.495 7.22213L407.917 8.15807C408.18 8.21007 408.453 8.13727 408.653 7.96048L412.004 4.96547L415.355 7.97088C415.555 8.14767 415.828 8.22047 416.09 8.16847L420.513 7.23253L421.9 11.4859C421.984 11.7354 422.183 11.9434 422.446 12.0266L426.743 13.3993L425.797 17.7774C425.745 18.0374 425.818 18.3078 425.997 18.5054L429.022 21.8124L425.997 25.1298Z" fill="black"/>
<path d="M412.004 9.74915C405.05 9.74915 399.398 15.344 399.398 22.2283C399.398 29.1127 405.05 34.7076 412.004 34.7076C418.958 34.7076 424.61 29.1127 424.61 22.2283C424.61 15.344 418.958 9.74915 412.004 9.74915ZM412.004 33.0437C405.984 33.0437 401.079 28.1872 401.079 22.2283C401.079 16.2695 405.984 11.413 412.004 11.413C418.023 11.413 422.929 16.2695 422.929 22.2283C422.929 28.1872 418.023 33.0437 412.004 33.0437Z" fill="black"/>
<path d="M416.7 16.0511L409.483 23.1227L407.308 20.9908C406.657 20.3565 405.596 20.3565 404.934 20.9908L403.6 22.2907C403.285 22.6027 403.106 23.0187 403.106 23.4659C403.106 23.913 403.285 24.329 403.6 24.641L408.296 29.2375C408.621 29.5599 409.052 29.7159 409.483 29.7159C409.913 29.7159 410.344 29.5599 410.67 29.2375L420.408 19.7117C420.723 19.3997 420.902 18.9838 420.902 18.5366C420.902 18.0894 420.723 17.6734 420.408 17.3615L419.074 16.0615C418.423 15.4168 417.351 15.4168 416.7 16.0511ZM411.416 26.1697L409.483 28.052L404.797 23.4659L406.132 22.1763L408.894 24.8802C409.22 25.2026 409.745 25.2026 410.071 24.8802L417.887 17.2367L417.299 16.6439L419.221 18.5262L411.416 26.1697Z" fill="black"/>
<path d="M823.68 8.1V9.96H817.78V14.06H822.38V15.92H817.78V22H815.5V8.1H823.68ZM828.073 12.58C828.406 12.02 828.846 11.5867 829.393 11.28C829.953 10.96 830.613 10.8 831.373 10.8V13.16H830.793C829.9 13.16 829.22 13.3867 828.753 13.84C828.3 14.2933 828.073 15.08 828.073 16.2V22H825.793V10.98H828.073V12.58ZM843.569 16.22C843.569 16.6333 843.542 17.0067 843.489 17.34H835.069C835.135 18.22 835.462 18.9267 836.049 19.46C836.635 19.9933 837.355 20.26 838.209 20.26C839.435 20.26 840.302 19.7467 840.809 18.72H843.269C842.935 19.7333 842.329 20.5667 841.449 21.22C840.582 21.86 839.502 22.18 838.209 22.18C837.155 22.18 836.209 21.9467 835.369 21.48C834.542 21 833.889 20.3333 833.409 19.48C832.942 18.6133 832.709 17.6133 832.709 16.48C832.709 15.3467 832.935 14.3533 833.389 13.5C833.855 12.6333 834.502 11.9667 835.329 11.5C836.169 11.0333 837.129 10.8 838.209 10.8C839.249 10.8 840.175 11.0267 840.989 11.48C841.802 11.9333 842.435 12.5733 842.889 13.4C843.342 14.2133 843.569 15.1533 843.569 16.22ZM841.189 15.5C841.175 14.66 840.875 13.9867 840.289 13.48C839.702 12.9733 838.975 12.72 838.109 12.72C837.322 12.72 836.649 12.9733 836.089 13.48C835.529 13.9733 835.195 14.6467 835.089 15.5H841.189ZM855.913 16.22C855.913 16.6333 855.886 17.0067 855.833 17.34H847.413C847.479 18.22 847.806 18.9267 848.393 19.46C848.979 19.9933 849.699 20.26 850.553 20.26C851.779 20.26 852.646 19.7467 853.153 18.72H855.612C855.279 19.7333 854.673 20.5667 853.793 21.22C852.926 21.86 851.846 22.18 850.553 22.18C849.499 22.18 848.553 21.9467 847.713 21.48C846.886 21 846.233 20.3333 845.753 19.48C845.286 18.6133 845.053 17.6133 845.053 16.48C845.053 15.3467 845.279 14.3533 845.733 13.5C846.199 12.6333 846.846 11.9667 847.673 11.5C848.513 11.0333 849.473 10.8 850.553 10.8C851.593 10.8 852.519 11.0267 853.333 11.48C854.146 11.9333 854.779 12.5733 855.233 13.4C855.686 14.2133 855.913 15.1533 855.913 16.22ZM853.533 15.5C853.519 14.66 853.219 13.9867 852.633 13.48C852.046 12.9733 851.319 12.72 850.453 12.72C849.666 12.72 848.993 12.9733 848.433 13.48C847.873 13.9733 847.539 14.6467 847.433 15.5H853.533ZM867.932 22.14C866.998 22.14 866.158 21.98 865.412 21.66C864.665 21.3267 864.078 20.86 863.652 20.26C863.225 19.66 863.012 18.96 863.012 18.16H865.452C865.505 18.76 865.738 19.2533 866.152 19.64C866.578 20.0267 867.172 20.22 867.932 20.22C868.718 20.22 869.332 20.0333 869.772 19.66C870.212 19.2733 870.432 18.78 870.432 18.18C870.432 17.7133 870.292 17.3333 870.012 17.04C869.745 16.7467 869.405 16.52 868.992 16.36C868.592 16.2 868.032 16.0267 867.312 15.84C866.405 15.6 865.665 15.36 865.092 15.12C864.532 14.8667 864.052 14.48 863.652 13.96C863.252 13.44 863.052 12.7467 863.052 11.88C863.052 11.08 863.252 10.38 863.652 9.78C864.052 9.18 864.612 8.72 865.332 8.4C866.052 8.08 866.885 7.92 867.832 7.92C869.178 7.92 870.278 8.26 871.132 8.94C871.998 9.60667 872.478 10.5267 872.572 11.7H870.052C870.012 11.1933 869.772 10.76 869.332 10.4C868.892 10.04 868.312 9.86 867.592 9.86C866.938 9.86 866.405 10.0267 865.992 10.36C865.578 10.6933 865.372 11.1733 865.372 11.8C865.372 12.2267 865.498 12.58 865.752 12.86C866.018 13.1267 866.352 13.34 866.752 13.5C867.152 13.66 867.698 13.8333 868.392 14.02C869.312 14.2733 870.058 14.5267 870.632 14.78C871.218 15.0333 871.712 15.4267 872.112 15.96C872.525 16.48 872.732 17.18 872.732 18.06C872.732 18.7667 872.538 19.4333 872.152 20.06C871.778 20.6867 871.225 21.1933 870.492 21.58C869.772 21.9533 868.918 22.14 867.932 22.14ZM881.122 10.8C881.962 10.8 882.709 10.98 883.362 11.34C884.029 11.7 884.549 12.2333 884.922 12.94C885.309 13.6467 885.502 14.5 885.502 15.5V22H883.242V15.84C883.242 14.8533 882.995 14.1 882.502 13.58C882.009 13.0467 881.335 12.78 880.482 12.78C879.629 12.78 878.949 13.0467 878.442 13.58C877.949 14.1 877.702 14.8533 877.702 15.84V22H875.422V7.2H877.702V12.26C878.089 11.7933 878.575 11.4333 879.162 11.18C879.762 10.9267 880.415 10.8 881.122 10.8ZM889.57 9.52C889.157 9.52 888.81 9.38 888.53 9.1C888.25 8.82 888.11 8.47333 888.11 8.06C888.11 7.64667 888.25 7.3 888.53 7.02C888.81 6.74 889.157 6.6 889.57 6.6C889.97 6.6 890.31 6.74 890.59 7.02C890.87 7.3 891.01 7.64667 891.01 8.06C891.01 8.47333 890.87 8.82 890.59 9.1C890.31 9.38 889.97 9.52 889.57 9.52ZM890.69 10.98V22H888.41V10.98H890.69ZM895.964 12.6C896.35 12.0933 896.877 11.6667 897.544 11.32C898.21 10.9733 898.964 10.8 899.804 10.8C900.764 10.8 901.637 11.04 902.424 11.52C903.224 11.9867 903.85 12.6467 904.304 13.5C904.757 14.3533 904.984 15.3333 904.984 16.44C904.984 17.5467 904.757 18.54 904.304 19.42C903.85 20.2867 903.224 20.9667 902.424 21.46C901.637 21.94 900.764 22.18 899.804 22.18C898.964 22.18 898.217 22.0133 897.564 21.68C896.91 21.3333 896.377 20.9067 895.964 20.4V27.24H893.684V10.98H895.964V12.6ZM902.664 16.44C902.664 15.68 902.504 15.0267 902.184 14.48C901.877 13.92 901.464 13.5 900.944 13.22C900.437 12.9267 899.89 12.78 899.304 12.78C898.73 12.78 898.184 12.9267 897.664 13.22C897.157 13.5133 896.744 13.94 896.424 14.5C896.117 15.06 895.964 15.72 895.964 16.48C895.964 17.24 896.117 17.9067 896.424 18.48C896.744 19.04 897.157 19.4667 897.664 19.76C898.184 20.0533 898.73 20.2 899.304 20.2C899.89 20.2 900.437 20.0533 900.944 19.76C901.464 19.4533 901.877 19.0133 902.184 18.44C902.504 17.8667 902.664 17.2 902.664 16.44ZM909.518 12.6C909.905 12.0933 910.432 11.6667 911.098 11.32C911.765 10.9733 912.518 10.8 913.358 10.8C914.318 10.8 915.192 11.04 915.978 11.52C916.778 11.9867 917.405 12.6467 917.858 13.5C918.312 14.3533 918.538 15.3333 918.538 16.44C918.538 17.5467 918.312 18.54 917.858 19.42C917.405 20.2867 916.778 20.9667 915.978 21.46C915.192 21.94 914.318 22.18 913.358 22.18C912.518 22.18 911.772 22.0133 911.118 21.68C910.465 21.3333 909.932 20.9067 909.518 20.4V27.24H907.238V10.98H909.518V12.6ZM916.218 16.44C916.218 15.68 916.058 15.0267 915.738 14.48C915.432 13.92 915.018 13.5 914.498 13.22C913.992 12.9267 913.445 12.78 912.858 12.78C912.285 12.78 911.738 12.9267 911.218 13.22C910.712 13.5133 910.298 13.94 909.978 14.5C909.672 15.06 909.518 15.72 909.518 16.48C909.518 17.24 909.672 17.9067 909.978 18.48C910.298 19.04 910.712 19.4667 911.218 19.76C911.738 20.0533 912.285 20.2 912.858 20.2C913.445 20.2 913.992 20.0533 914.498 19.76C915.018 19.4533 915.432 19.0133 915.738 18.44C916.058 17.8667 916.218 17.2 916.218 16.44ZM921.953 9.52C921.54 9.52 921.193 9.38 920.913 9.1C920.633 8.82 920.493 8.47333 920.493 8.06C920.493 7.64667 920.633 7.3 920.913 7.02C921.193 6.74 921.54 6.6 921.953 6.6C922.353 6.6 922.693 6.74 922.973 7.02C923.253 7.3 923.393 7.64667 923.393 8.06C923.393 8.47333 923.253 8.82 922.973 9.1C922.693 9.38 922.353 9.52 921.953 9.52ZM923.073 10.98V22H920.793V10.98H923.073ZM931.626 10.8C932.493 10.8 933.266 10.98 933.946 11.34C934.64 11.7 935.18 12.2333 935.566 12.94C935.953 13.6467 936.146 14.5 936.146 15.5V22H933.886V15.84C933.886 14.8533 933.64 14.1 933.146 13.58C932.653 13.0467 931.98 12.78 931.126 12.78C930.273 12.78 929.593 13.0467 929.086 13.58C928.593 14.1 928.346 14.8533 928.346 15.84V22H926.066V10.98H928.346V12.24C928.72 11.7867 929.193 11.4333 929.766 11.18C930.353 10.9267 930.973 10.8 931.626 10.8ZM943.495 10.8C944.348 10.8 945.101 10.9733 945.755 11.32C946.421 11.6533 946.941 12.0733 947.315 12.58V10.98H949.615V22.18C949.615 23.1933 949.401 24.0933 948.975 24.88C948.548 25.68 947.928 26.3067 947.115 26.76C946.315 27.2133 945.355 27.44 944.235 27.44C942.741 27.44 941.501 27.0867 940.515 26.38C939.528 25.6867 938.968 24.74 938.835 23.54H941.095C941.268 24.1133 941.635 24.5733 942.195 24.92C942.768 25.28 943.448 25.46 944.235 25.46C945.155 25.46 945.895 25.18 946.455 24.62C947.028 24.06 947.315 23.2467 947.315 22.18V20.34C946.928 20.86 946.401 21.3 945.735 21.66C945.081 22.0067 944.335 22.18 943.495 22.18C942.535 22.18 941.655 21.94 940.855 21.46C940.068 20.9667 939.441 20.2867 938.975 19.42C938.521 18.54 938.295 17.5467 938.295 16.44C938.295 15.3333 938.521 14.3533 938.975 13.5C939.441 12.6467 940.068 11.9867 940.855 11.52C941.655 11.04 942.535 10.8 943.495 10.8ZM947.315 16.48C947.315 15.72 947.155 15.06 946.835 14.5C946.528 13.94 946.121 13.5133 945.615 13.22C945.108 12.9267 944.561 12.78 943.975 12.78C943.388 12.78 942.841 12.9267 942.335 13.22C941.828 13.5 941.415 13.92 941.095 14.48C940.788 15.0267 940.635 15.68 940.635 16.44C940.635 17.2 940.788 17.8667 941.095 18.44C941.415 19.0133 941.828 19.4533 942.335 19.76C942.855 20.0533 943.401 20.2 943.975 20.2C944.561 20.2 945.108 20.0533 945.615 19.76C946.121 19.4667 946.528 19.04 946.835 18.48C947.155 17.9067 947.315 17.24 947.315 16.48Z" fill="#484848"/>
<path d="M820.288 49.112C819.253 49.112 818.309 48.872 817.456 48.392C816.603 47.9013 815.925 47.224 815.424 46.36C814.933 45.4853 814.688 44.504 814.688 43.416C814.688 42.328 814.933 41.352 815.424 40.488C815.925 39.6133 816.603 38.936 817.456 38.456C818.309 37.9653 819.253 37.72 820.288 37.72C821.333 37.72 822.283 37.9653 823.136 38.456C823.989 38.936 824.661 39.608 825.152 40.472C825.643 41.336 825.888 42.3173 825.888 43.416C825.888 44.5147 825.643 45.496 825.152 46.36C824.661 47.224 823.989 47.9013 823.136 48.392C822.283 48.872 821.333 49.112 820.288 49.112ZM820.288 47.848C821.067 47.848 821.765 47.6667 822.384 47.304C823.013 46.9413 823.504 46.424 823.856 45.752C824.219 45.08 824.4 44.3013 824.4 43.416C824.4 42.52 824.219 41.7413 823.856 41.08C823.504 40.408 823.019 39.8907 822.4 39.528C821.781 39.1653 821.077 38.984 820.288 38.984C819.499 38.984 818.795 39.1653 818.176 39.528C817.557 39.8907 817.067 40.408 816.704 41.08C816.352 41.7413 816.176 42.52 816.176 43.416C816.176 44.3013 816.352 45.08 816.704 45.752C817.067 46.424 817.557 46.9413 818.176 47.304C818.805 47.6667 819.509 47.848 820.288 47.848ZM829.266 41.656C829.522 41.1547 829.885 40.7653 830.354 40.488C830.834 40.2107 831.415 40.072 832.098 40.072V41.576H831.714C830.082 41.576 829.266 42.4613 829.266 44.232V49H827.81V40.232H829.266V41.656ZM833.235 44.584C833.235 43.688 833.416 42.904 833.779 42.232C834.142 41.5493 834.638 41.0213 835.267 40.648C835.907 40.2747 836.622 40.088 837.411 40.088C838.094 40.088 838.728 40.248 839.315 40.568C839.902 40.8773 840.35 41.288 840.659 41.8V37.16H842.131V49H840.659V47.352C840.371 47.8747 839.944 48.3067 839.379 48.648C838.814 48.9787 838.152 49.144 837.395 49.144C836.616 49.144 835.907 48.952 835.267 48.568C834.638 48.184 834.142 47.6453 833.779 46.952C833.416 46.2587 833.235 45.4693 833.235 44.584ZM840.659 44.6C840.659 43.9387 840.526 43.3627 840.259 42.872C839.992 42.3813 839.63 42.008 839.171 41.752C838.723 41.4853 838.227 41.352 837.683 41.352C837.139 41.352 836.643 41.48 836.195 41.736C835.747 41.992 835.39 42.3653 835.123 42.856C834.856 43.3467 834.723 43.9227 834.723 44.584C834.723 45.256 834.856 45.8427 835.123 46.344C835.39 46.8347 835.747 47.2133 836.195 47.48C836.643 47.736 837.139 47.864 837.683 47.864C838.227 47.864 838.723 47.736 839.171 47.48C839.63 47.2133 839.992 46.8347 840.259 46.344C840.526 45.8427 840.659 45.2613 840.659 44.6ZM852.591 44.28C852.591 44.5573 852.575 44.8507 852.543 45.16H845.535C845.589 46.024 845.882 46.7013 846.415 47.192C846.959 47.672 847.615 47.912 848.383 47.912C849.013 47.912 849.535 47.768 849.951 47.48C850.378 47.1813 850.677 46.7867 850.847 46.296H852.415C852.181 47.1387 851.711 47.8267 851.007 48.36C850.303 48.8827 849.429 49.144 848.383 49.144C847.551 49.144 846.805 48.9573 846.143 48.584C845.493 48.2107 844.981 47.6827 844.607 47C844.234 46.3067 844.047 45.5067 844.047 44.6C844.047 43.6933 844.229 42.8987 844.591 42.216C844.954 41.5333 845.461 41.0107 846.111 40.648C846.773 40.2747 847.53 40.088 848.383 40.088C849.215 40.088 849.951 40.2693 850.591 40.632C851.231 40.9947 851.722 41.496 852.063 42.136C852.415 42.7653 852.591 43.48 852.591 44.28ZM851.087 43.976C851.087 43.4213 850.965 42.9467 850.719 42.552C850.474 42.1467 850.138 41.8427 849.711 41.64C849.295 41.4267 848.831 41.32 848.319 41.32C847.583 41.32 846.954 41.5547 846.431 42.024C845.919 42.4933 845.626 43.144 845.551 43.976H851.087ZM855.969 41.656C856.225 41.1547 856.588 40.7653 857.057 40.488C857.537 40.2107 858.119 40.072 858.801 40.072V41.576H858.417C856.785 41.576 855.969 42.4613 855.969 44.232V49H854.513V40.232H855.969V41.656ZM868.572 49.144C867.75 49.144 867.004 48.9573 866.332 48.584C865.67 48.2107 865.148 47.6827 864.764 47C864.39 46.3067 864.204 45.5067 864.204 44.6C864.204 43.704 864.396 42.9147 864.78 42.232C865.174 41.5387 865.708 41.0107 866.38 40.648C867.052 40.2747 867.804 40.088 868.636 40.088C869.468 40.088 870.22 40.2747 870.892 40.648C871.564 41.0107 872.092 41.5333 872.476 42.216C872.87 42.8987 873.068 43.6933 873.068 44.6C873.068 45.5067 872.865 46.3067 872.46 47C872.065 47.6827 871.526 48.2107 870.844 48.584C870.161 48.9573 869.404 49.144 868.572 49.144ZM868.572 47.864C869.094 47.864 869.585 47.7413 870.044 47.496C870.502 47.2507 870.87 46.8827 871.148 46.392C871.436 45.9013 871.58 45.304 871.58 44.6C871.58 43.896 871.441 43.2987 871.164 42.808C870.886 42.3173 870.524 41.9547 870.076 41.72C869.628 41.4747 869.142 41.352 868.62 41.352C868.086 41.352 867.596 41.4747 867.148 41.72C866.71 41.9547 866.358 42.3173 866.092 42.808C865.825 43.2987 865.692 43.896 865.692 44.6C865.692 45.3147 865.82 45.9173 866.076 46.408C866.342 46.8987 866.694 47.2667 867.132 47.512C867.569 47.7467 868.049 47.864 868.572 47.864ZM878.246 47.656L880.966 40.232H882.518L879.078 49H877.382L873.942 40.232H875.51L878.246 47.656ZM891.951 44.28C891.951 44.5573 891.935 44.8507 891.903 45.16H884.895C884.948 46.024 885.241 46.7013 885.775 47.192C886.319 47.672 886.975 47.912 887.743 47.912C888.372 47.912 888.895 47.768 889.311 47.48C889.737 47.1813 890.036 46.7867 890.207 46.296H891.775C891.54 47.1387 891.071 47.8267 890.367 48.36C889.663 48.8827 888.788 49.144 887.743 49.144C886.911 49.144 886.164 48.9573 885.503 48.584C884.852 48.2107 884.34 47.6827 883.967 47C883.593 46.3067 883.407 45.5067 883.407 44.6C883.407 43.6933 883.588 42.8987 883.951 42.216C884.313 41.5333 884.82 41.0107 885.471 40.648C886.132 40.2747 886.889 40.088 887.743 40.088C888.575 40.088 889.311 40.2693 889.951 40.632C890.591 40.9947 891.081 41.496 891.423 42.136C891.775 42.7653 891.951 43.48 891.951 44.28ZM890.447 43.976C890.447 43.4213 890.324 42.9467 890.079 42.552C889.833 42.1467 889.497 41.8427 889.071 41.64C888.655 41.4267 888.191 41.32 887.679 41.32C886.943 41.32 886.313 41.5547 885.791 42.024C885.279 42.4933 884.985 43.144 884.911 43.976H890.447ZM895.329 41.656C895.585 41.1547 895.947 40.7653 896.417 40.488C896.897 40.2107 897.478 40.072 898.161 40.072V41.576H897.777C896.145 41.576 895.329 42.4613 895.329 44.232V49H893.873V40.232H895.329V41.656ZM903.483 38.76V37.432H906.491V49H905.019V38.76H903.483ZM916.368 38.696H910.752V42.344C910.997 42.0027 911.36 41.7253 911.84 41.512C912.32 41.288 912.837 41.176 913.392 41.176C914.277 41.176 914.997 41.3627 915.552 41.736C916.107 42.0987 916.501 42.5733 916.736 43.16C916.981 43.736 917.104 44.3493 917.104 45C917.104 45.768 916.96 46.456 916.672 47.064C916.384 47.672 915.941 48.152 915.344 48.504C914.757 48.856 914.027 49.032 913.152 49.032C912.032 49.032 911.125 48.744 910.432 48.168C909.739 47.592 909.317 46.824 909.168 45.864H910.592C910.731 46.472 911.024 46.9467 911.472 47.288C911.92 47.6293 912.485 47.8 913.168 47.8C914.011 47.8 914.645 47.5493 915.072 47.048C915.499 46.536 915.712 45.864 915.712 45.032C915.712 44.2 915.499 43.56 915.072 43.112C914.645 42.6533 914.016 42.424 913.184 42.424C912.619 42.424 912.123 42.5627 911.696 42.84C911.28 43.1067 910.976 43.4747 910.784 43.944H909.408V37.416H916.368V38.696ZM919.039 43.096C919.039 41.2613 919.338 39.832 919.935 38.808C920.532 37.7733 921.578 37.256 923.071 37.256C924.554 37.256 925.594 37.7733 926.191 38.808C926.788 39.832 927.087 41.2613 927.087 43.096C927.087 44.9627 926.788 46.4133 926.191 47.448C925.594 48.4827 924.554 49 923.071 49C921.578 49 920.532 48.4827 919.935 47.448C919.338 46.4133 919.039 44.9627 919.039 43.096ZM925.647 43.096C925.647 42.168 925.583 41.384 925.455 40.744C925.338 40.0933 925.087 39.5707 924.703 39.176C924.33 38.7813 923.786 38.584 923.071 38.584C922.346 38.584 921.791 38.7813 921.407 39.176C921.034 39.5707 920.783 40.0933 920.655 40.744C920.538 41.384 920.479 42.168 920.479 43.096C920.479 44.056 920.538 44.8613 920.655 45.512C920.783 46.1627 921.034 46.6853 921.407 47.08C921.791 47.4747 922.346 47.672 923.071 47.672C923.786 47.672 924.33 47.4747 924.703 47.08C925.087 46.6853 925.338 46.1627 925.455 45.512C925.583 44.8613 925.647 44.056 925.647 43.096ZM940.791 45.944C940.791 46.456 940.663 46.9467 940.407 47.416C940.151 47.8747 939.773 48.2587 939.271 48.568C938.781 48.8773 938.189 49.0533 937.495 49.096V50.392H936.631V49.096C935.661 49.0107 934.871 48.7013 934.263 48.168C933.655 47.624 933.346 46.936 933.335 46.104H934.887C934.93 46.552 935.095 46.9413 935.383 47.272C935.682 47.6027 936.098 47.8107 936.631 47.896V43.896C935.917 43.7147 935.341 43.528 934.903 43.336C934.466 43.144 934.093 42.8453 933.783 42.44C933.474 42.0347 933.319 41.4907 933.319 40.808C933.319 39.944 933.618 39.2293 934.215 38.664C934.823 38.0987 935.629 37.784 936.631 37.72V36.392H937.495V37.72C938.402 37.7947 939.133 38.088 939.687 38.6C940.242 39.1013 940.562 39.7573 940.647 40.568H939.095C939.042 40.1947 938.877 39.8587 938.599 39.56C938.322 39.2507 937.954 39.048 937.495 38.952V42.856C938.199 43.0373 938.77 43.224 939.207 43.416C939.655 43.5973 940.029 43.8907 940.327 44.296C940.637 44.7013 940.791 45.2507 940.791 45.944ZM934.807 40.728C934.807 41.2507 934.962 41.6507 935.271 41.928C935.581 42.2053 936.034 42.4347 936.631 42.616V38.92C936.077 38.9733 935.634 39.1547 935.303 39.464C934.973 39.7627 934.807 40.184 934.807 40.728ZM937.495 47.912C938.071 47.848 938.519 47.64 938.839 47.288C939.17 46.936 939.335 46.5147 939.335 46.024C939.335 45.5013 939.175 45.1013 938.855 44.824C938.535 44.536 938.082 44.3067 937.495 44.136V47.912Z" fill="#484848"/>
<path d="M800.557 15.1712L778.409 3.10116C778.286 3.03474 778.148 3 778.009 3C777.869 3 777.731 3.03474 777.608 3.10116L755.46 15.1712C755.322 15.2434 755.207 15.3522 755.126 15.4858C755.045 15.6195 755.001 15.7731 755 15.9299V40.07C755 40.226 755.043 40.3789 755.122 40.5126C755.202 40.6461 755.315 40.7554 755.451 40.8287L777.6 52.8988C777.723 52.9653 777.86 53 778 53C778.14 53 778.277 52.9653 778.4 52.8988L800.549 40.8287C800.685 40.7554 800.798 40.6461 800.878 40.5126C800.957 40.3789 801 40.226 801 40.07V15.9299C801 15.7748 800.959 15.6225 800.882 15.489C800.804 15.3554 800.691 15.2457 800.557 15.1712ZM778 4.84269L798.359 15.9299L792.396 19.1802L772.744 7.70502L778 4.84269ZM757.641 15.9299L764.055 12.4813L783.699 23.9134L778 27.0171L757.641 15.9299ZM770.981 8.66201L790.633 20.1372L785.462 22.9564L765.819 11.4726L770.981 8.66201ZM786.595 24.2927L791.229 21.7753V28.2069L789.44 26.4136C789.341 26.3137 789.219 26.2401 789.085 26.1994C788.95 26.1587 788.808 26.1521 788.671 26.1802C788.534 26.2084 788.405 26.2704 788.297 26.3607C788.189 26.451 788.105 26.5669 788.052 26.6981L786.595 30.2502V24.2927ZM756.704 17.3697L777.148 28.5173V50.7003L756.704 39.5527V17.3697ZM778.852 50.7003V28.5173L784.891 25.2238V34.5868C784.901 34.7798 784.975 34.964 785.101 35.1095C785.226 35.2551 785.397 35.3536 785.584 35.3895C785.772 35.4253 785.966 35.3962 786.136 35.3069C786.305 35.2176 786.44 35.0734 786.519 34.8971L789.125 28.5259L791.459 30.8709C791.578 30.9926 791.731 31.0754 791.897 31.1091C792.062 31.1428 792.234 31.1258 792.391 31.0601C792.547 30.9944 792.68 30.8832 792.774 30.7404C792.867 30.5977 792.917 30.43 792.916 30.2588V20.8441L799.288 17.3955V39.5527L778.852 50.7003Z" fill="black"/>
<path d="M1133.46 18.9C1134.74 17.7933 1135.75 16.8867 1136.48 16.18C1137.23 15.46 1137.85 14.7133 1138.34 13.94C1138.83 13.1667 1139.08 12.3933 1139.08 11.62C1139.08 10.82 1138.89 10.1933 1138.5 9.74C1138.13 9.28667 1137.53 9.06 1136.72 9.06C1135.93 9.06 1135.32 9.31333 1134.88 9.82C1134.45 10.3133 1134.23 10.98 1134.2 11.82H1132C1132.04 10.3 1132.49 9.14 1133.36 8.34C1134.24 7.52667 1135.35 7.12 1136.7 7.12C1138.15 7.12 1139.29 7.52 1140.1 8.32C1140.93 9.12 1141.34 10.1867 1141.34 11.52C1141.34 12.48 1141.09 13.4067 1140.6 14.3C1140.12 15.18 1139.54 15.9733 1138.86 16.68C1138.19 17.3733 1137.34 18.18 1136.3 19.1L1135.4 19.9H1141.74V21.8H1132.02V20.14L1133.46 18.9ZM1143.46 18.96V17.24L1150.18 7.6H1152.94V16.98H1154.8V18.96H1152.94V22H1150.7V18.96H1143.46ZM1150.8 9.92L1146.08 16.98H1150.8V9.92ZM1169.59 3.12L1164.15 25.5H1161.91L1167.33 3.12H1169.59ZM1186.6 9.18L1181.04 22H1178.74L1184.36 9.42H1176.96V7.48H1186.6V9.18ZM1198.62 22.14C1197.69 22.14 1196.85 21.98 1196.1 21.66C1195.36 21.3267 1194.77 20.86 1194.34 20.26C1193.92 19.66 1193.7 18.96 1193.7 18.16H1196.14C1196.2 18.76 1196.43 19.2533 1196.84 19.64C1197.27 20.0267 1197.86 20.22 1198.62 20.22C1199.41 20.22 1200.02 20.0333 1200.46 19.66C1200.9 19.2733 1201.12 18.78 1201.12 18.18C1201.12 17.7133 1200.98 17.3333 1200.7 17.04C1200.44 16.7467 1200.1 16.52 1199.68 16.36C1199.28 16.2 1198.72 16.0267 1198 15.84C1197.1 15.6 1196.36 15.36 1195.78 15.12C1195.22 14.8667 1194.74 14.48 1194.34 13.96C1193.94 13.44 1193.74 12.7467 1193.74 11.88C1193.74 11.08 1193.94 10.38 1194.34 9.78C1194.74 9.18 1195.3 8.72 1196.02 8.4C1196.74 8.08 1197.58 7.92 1198.52 7.92C1199.87 7.92 1200.97 8.26 1201.82 8.94C1202.69 9.60667 1203.17 10.5267 1203.26 11.7H1200.74C1200.7 11.1933 1200.46 10.76 1200.02 10.4C1199.58 10.04 1199 9.86 1198.28 9.86C1197.63 9.86 1197.1 10.0267 1196.68 10.36C1196.27 10.6933 1196.06 11.1733 1196.06 11.8C1196.06 12.2267 1196.19 12.58 1196.44 12.86C1196.71 13.1267 1197.04 13.34 1197.44 13.5C1197.84 13.66 1198.39 13.8333 1199.08 14.02C1200 14.2733 1200.75 14.5267 1201.32 14.78C1201.91 15.0333 1202.4 15.4267 1202.8 15.96C1203.22 16.48 1203.42 17.18 1203.42 18.06C1203.42 18.7667 1203.23 19.4333 1202.84 20.06C1202.47 20.6867 1201.92 21.1933 1201.18 21.58C1200.46 21.9533 1199.61 22.14 1198.62 22.14ZM1216.09 10.98V22H1213.81V20.7C1213.45 21.1533 1212.98 21.5133 1212.39 21.78C1211.82 22.0333 1211.21 22.16 1210.55 22.16C1209.69 22.16 1208.91 21.98 1208.21 21.62C1207.53 21.26 1206.99 20.7267 1206.59 20.02C1206.21 19.3133 1206.01 18.46 1206.01 17.46V10.98H1208.27V17.12C1208.27 18.1067 1208.52 18.8667 1209.01 19.4C1209.51 19.92 1210.18 20.18 1211.03 20.18C1211.89 20.18 1212.56 19.92 1213.05 19.4C1213.56 18.8667 1213.81 18.1067 1213.81 17.12V10.98H1216.09ZM1221.38 12.6C1221.77 12.0933 1222.29 11.6667 1222.96 11.32C1223.63 10.9733 1224.38 10.8 1225.22 10.8C1226.18 10.8 1227.05 11.04 1227.84 11.52C1228.64 11.9867 1229.27 12.6467 1229.72 13.5C1230.17 14.3533 1230.4 15.3333 1230.4 16.44C1230.4 17.5467 1230.17 18.54 1229.72 19.42C1229.27 20.2867 1228.64 20.9667 1227.84 21.46C1227.05 21.94 1226.18 22.18 1225.22 22.18C1224.38 22.18 1223.63 22.0133 1222.98 21.68C1222.33 21.3333 1221.79 20.9067 1221.38 20.4V27.24H1219.1V10.98H1221.38V12.6ZM1228.08 16.44C1228.08 15.68 1227.92 15.0267 1227.6 14.48C1227.29 13.92 1226.88 13.5 1226.36 13.22C1225.85 12.9267 1225.31 12.78 1224.72 12.78C1224.15 12.78 1223.6 12.9267 1223.08 13.22C1222.57 13.5133 1222.16 13.94 1221.84 14.5C1221.53 15.06 1221.38 15.72 1221.38 16.48C1221.38 17.24 1221.53 17.9067 1221.84 18.48C1222.16 19.04 1222.57 19.4667 1223.08 19.76C1223.6 20.0533 1224.15 20.2 1224.72 20.2C1225.31 20.2 1225.85 20.0533 1226.36 19.76C1226.88 19.4533 1227.29 19.0133 1227.6 18.44C1227.92 17.8667 1228.08 17.2 1228.08 16.44ZM1234.94 12.6C1235.32 12.0933 1235.85 11.6667 1236.52 11.32C1237.18 10.9733 1237.94 10.8 1238.78 10.8C1239.74 10.8 1240.61 11.04 1241.4 11.52C1242.2 11.9867 1242.82 12.6467 1243.28 13.5C1243.73 14.3533 1243.96 15.3333 1243.96 16.44C1243.96 17.5467 1243.73 18.54 1243.28 19.42C1242.82 20.2867 1242.2 20.9667 1241.4 21.46C1240.61 21.94 1239.74 22.18 1238.78 22.18C1237.94 22.18 1237.19 22.0133 1236.54 21.68C1235.88 21.3333 1235.35 20.9067 1234.94 20.4V27.24H1232.66V10.98H1234.94V12.6ZM1241.64 16.44C1241.64 15.68 1241.48 15.0267 1241.16 14.48C1240.85 13.92 1240.44 13.5 1239.92 13.22C1239.41 12.9267 1238.86 12.78 1238.28 12.78C1237.7 12.78 1237.16 12.9267 1236.64 13.22C1236.13 13.5133 1235.72 13.94 1235.4 14.5C1235.09 15.06 1234.94 15.72 1234.94 16.48C1234.94 17.24 1235.09 17.9067 1235.4 18.48C1235.72 19.04 1236.13 19.4667 1236.64 19.76C1237.16 20.0533 1237.7 20.2 1238.28 20.2C1238.86 20.2 1239.41 20.0533 1239.92 19.76C1240.44 19.4533 1240.85 19.0133 1241.16 18.44C1241.48 17.8667 1241.64 17.2 1241.64 16.44ZM1250.99 22.18C1249.95 22.18 1249.01 21.9467 1248.17 21.48C1247.33 21 1246.67 20.3333 1246.19 19.48C1245.71 18.6133 1245.47 17.6133 1245.47 16.48C1245.47 15.36 1245.72 14.3667 1246.21 13.5C1246.7 12.6333 1247.38 11.9667 1248.23 11.5C1249.08 11.0333 1250.04 10.8 1251.09 10.8C1252.14 10.8 1253.1 11.0333 1253.95 11.5C1254.8 11.9667 1255.48 12.6333 1255.97 13.5C1256.46 14.3667 1256.71 15.36 1256.71 16.48C1256.71 17.6 1256.46 18.5933 1255.95 19.46C1255.44 20.3267 1254.75 21 1253.87 21.48C1253 21.9467 1252.04 22.18 1250.99 22.18ZM1250.99 20.2C1251.58 20.2 1252.12 20.06 1252.63 19.78C1253.15 19.5 1253.57 19.08 1253.89 18.52C1254.21 17.96 1254.37 17.28 1254.37 16.48C1254.37 15.68 1254.22 15.0067 1253.91 14.46C1253.6 13.9 1253.2 13.48 1252.69 13.2C1252.18 12.92 1251.64 12.78 1251.05 12.78C1250.46 12.78 1249.92 12.92 1249.41 13.2C1248.92 13.48 1248.52 13.9 1248.23 14.46C1247.94 15.0067 1247.79 15.68 1247.79 16.48C1247.79 17.6667 1248.09 18.5867 1248.69 19.24C1249.3 19.88 1250.07 20.2 1250.99 20.2ZM1261.24 12.58C1261.58 12.02 1262.02 11.5867 1262.56 11.28C1263.12 10.96 1263.78 10.8 1264.54 10.8V13.16H1263.96C1263.07 13.16 1262.39 13.3867 1261.92 13.84C1261.47 14.2933 1261.24 15.08 1261.24 16.2V22H1258.96V10.98H1261.24V12.58ZM1269.3 12.84V18.94C1269.3 19.3533 1269.39 19.6533 1269.58 19.84C1269.78 20.0133 1270.11 20.1 1270.58 20.1H1271.98V22H1270.18C1269.15 22 1268.37 21.76 1267.82 21.28C1267.27 20.8 1267 20.02 1267 18.94V12.84H1265.7V10.98H1267V8.24H1269.3V10.98H1271.98V12.84H1269.3Z" fill="#484848"/>
<path d="M1135.7 37.848C1136.92 37.848 1137.97 38.0773 1138.86 38.536C1139.75 38.984 1140.43 39.6293 1140.9 40.472C1141.38 41.3147 1141.62 42.3067 1141.62 43.448C1141.62 44.5893 1141.38 45.5813 1140.9 46.424C1140.43 47.256 1139.75 47.896 1138.86 48.344C1137.97 48.7813 1136.92 49 1135.7 49H1132.23V37.848H1135.7ZM1135.7 47.8C1137.14 47.8 1138.24 47.4213 1139 46.664C1139.76 45.896 1140.14 44.824 1140.14 43.448C1140.14 42.0613 1139.75 40.9787 1138.98 40.2C1138.23 39.4213 1137.13 39.032 1135.7 39.032H1133.69V47.8H1135.7ZM1151.54 44.28C1151.54 44.5573 1151.53 44.8507 1151.5 45.16H1144.49C1144.54 46.024 1144.84 46.7013 1145.37 47.192C1145.91 47.672 1146.57 47.912 1147.34 47.912C1147.97 47.912 1148.49 47.768 1148.9 47.48C1149.33 47.1813 1149.63 46.7867 1149.8 46.296H1151.37C1151.13 47.1387 1150.66 47.8267 1149.96 48.36C1149.26 48.8827 1148.38 49.144 1147.34 49.144C1146.5 49.144 1145.76 48.9573 1145.1 48.584C1144.45 48.2107 1143.93 47.6827 1143.56 47C1143.19 46.3067 1143 45.5067 1143 44.6C1143 43.6933 1143.18 42.8987 1143.54 42.216C1143.91 41.5333 1144.41 41.0107 1145.06 40.648C1145.73 40.2747 1146.48 40.088 1147.34 40.088C1148.17 40.088 1148.9 40.2693 1149.54 40.632C1150.18 40.9947 1150.68 41.496 1151.02 42.136C1151.37 42.7653 1151.54 43.48 1151.54 44.28ZM1150.04 43.976C1150.04 43.4213 1149.92 42.9467 1149.67 42.552C1149.43 42.1467 1149.09 41.8427 1148.66 41.64C1148.25 41.4267 1147.78 41.32 1147.27 41.32C1146.54 41.32 1145.91 41.5547 1145.38 42.024C1144.87 42.4933 1144.58 43.144 1144.5 43.976H1150.04ZM1152.92 44.584C1152.92 43.688 1153.1 42.904 1153.47 42.232C1153.83 41.5493 1154.33 41.0213 1154.95 40.648C1155.59 40.2747 1156.31 40.088 1157.1 40.088C1157.78 40.088 1158.42 40.248 1159 40.568C1159.59 40.8773 1160.04 41.288 1160.35 41.8V37.16H1161.82V49H1160.35V47.352C1160.06 47.8747 1159.63 48.3067 1159.07 48.648C1158.5 48.9787 1157.84 49.144 1157.08 49.144C1156.3 49.144 1155.59 48.952 1154.95 48.568C1154.33 48.184 1153.83 47.6453 1153.47 46.952C1153.1 46.2587 1152.92 45.4693 1152.92 44.584ZM1160.35 44.6C1160.35 43.9387 1160.21 43.3627 1159.95 42.872C1159.68 42.3813 1159.32 42.008 1158.86 41.752C1158.41 41.4853 1157.91 41.352 1157.37 41.352C1156.83 41.352 1156.33 41.48 1155.88 41.736C1155.43 41.992 1155.08 42.3653 1154.81 42.856C1154.54 43.3467 1154.41 43.9227 1154.41 44.584C1154.41 45.256 1154.54 45.8427 1154.81 46.344C1155.08 46.8347 1155.43 47.2133 1155.88 47.48C1156.33 47.736 1156.83 47.864 1157.37 47.864C1157.91 47.864 1158.41 47.736 1158.86 47.48C1159.32 47.2133 1159.68 46.8347 1159.95 46.344C1160.21 45.8427 1160.35 45.2613 1160.35 44.6ZM1165.03 38.808C1164.75 38.808 1164.52 38.712 1164.33 38.52C1164.13 38.328 1164.04 38.0933 1164.04 37.816C1164.04 37.5387 1164.13 37.304 1164.33 37.112C1164.52 36.92 1164.75 36.824 1165.03 36.824C1165.3 36.824 1165.52 36.92 1165.7 37.112C1165.89 37.304 1165.99 37.5387 1165.99 37.816C1165.99 38.0933 1165.89 38.328 1165.7 38.52C1165.52 38.712 1165.3 38.808 1165.03 38.808ZM1165.73 40.232V49H1164.28V40.232H1165.73ZM1167.67 44.6C1167.67 43.6933 1167.85 42.904 1168.22 42.232C1168.58 41.5493 1169.08 41.0213 1169.72 40.648C1170.37 40.2747 1171.11 40.088 1171.94 40.088C1173.02 40.088 1173.91 40.3493 1174.6 40.872C1175.3 41.3947 1175.77 42.12 1175.99 43.048H1174.42C1174.28 42.5147 1173.98 42.0933 1173.54 41.784C1173.12 41.4747 1172.58 41.32 1171.94 41.32C1171.11 41.32 1170.44 41.608 1169.93 42.184C1169.42 42.7493 1169.16 43.5547 1169.16 44.6C1169.16 45.656 1169.42 46.472 1169.93 47.048C1170.44 47.624 1171.11 47.912 1171.94 47.912C1172.58 47.912 1173.12 47.7627 1173.54 47.464C1173.97 47.1653 1174.26 46.7387 1174.42 46.184H1175.99C1175.76 47.08 1175.29 47.8 1174.58 48.344C1173.88 48.8773 1173 49.144 1171.94 49.144C1171.11 49.144 1170.37 48.9573 1169.72 48.584C1169.08 48.2107 1168.58 47.6827 1168.22 47C1167.85 46.3173 1167.67 45.5173 1167.67 44.6ZM1177.39 44.584C1177.39 43.688 1177.57 42.904 1177.94 42.232C1178.3 41.5493 1178.79 41.0213 1179.42 40.648C1180.06 40.2747 1180.77 40.088 1181.55 40.088C1182.32 40.088 1182.99 40.2533 1183.55 40.584C1184.12 40.9147 1184.54 41.3307 1184.82 41.832V40.232H1186.29V49H1184.82V47.368C1184.53 47.88 1184.1 48.3067 1183.52 48.648C1182.95 48.9787 1182.29 49.144 1181.54 49.144C1180.76 49.144 1180.05 48.952 1179.42 48.568C1178.79 48.184 1178.3 47.6453 1177.94 46.952C1177.57 46.2587 1177.39 45.4693 1177.39 44.584ZM1184.82 44.6C1184.82 43.9387 1184.68 43.3627 1184.42 42.872C1184.15 42.3813 1183.79 42.008 1183.33 41.752C1182.88 41.4853 1182.38 41.352 1181.84 41.352C1181.3 41.352 1180.8 41.48 1180.35 41.736C1179.9 41.992 1179.55 42.3653 1179.28 42.856C1179.01 43.3467 1178.88 43.9227 1178.88 44.584C1178.88 45.256 1179.01 45.8427 1179.28 46.344C1179.55 46.8347 1179.9 47.2133 1180.35 47.48C1180.8 47.736 1181.3 47.864 1181.84 47.864C1182.38 47.864 1182.88 47.736 1183.33 47.48C1183.79 47.2133 1184.15 46.8347 1184.42 46.344C1184.68 45.8427 1184.82 45.2613 1184.82 44.6ZM1190.52 41.432V46.6C1190.52 47.0267 1190.61 47.3307 1190.8 47.512C1190.98 47.6827 1191.29 47.768 1191.74 47.768H1192.81V49H1191.5C1190.69 49 1190.08 48.8133 1189.68 48.44C1189.27 48.0667 1189.07 47.4533 1189.07 46.6V41.432H1187.93V40.232H1189.07V38.024H1190.52V40.232H1192.81V41.432H1190.52ZM1202.58 44.28C1202.58 44.5573 1202.56 44.8507 1202.53 45.16H1195.52C1195.57 46.024 1195.87 46.7013 1196.4 47.192C1196.94 47.672 1197.6 47.912 1198.37 47.912C1199 47.912 1199.52 47.768 1199.94 47.48C1200.36 47.1813 1200.66 46.7867 1200.83 46.296H1202.4C1202.17 47.1387 1201.7 47.8267 1200.99 48.36C1200.29 48.8827 1199.41 49.144 1198.37 49.144C1197.54 49.144 1196.79 48.9573 1196.13 48.584C1195.48 48.2107 1194.97 47.6827 1194.59 47C1194.22 46.3067 1194.03 45.5067 1194.03 44.6C1194.03 43.6933 1194.21 42.8987 1194.58 42.216C1194.94 41.5333 1195.45 41.0107 1196.1 40.648C1196.76 40.2747 1197.51 40.088 1198.37 40.088C1199.2 40.088 1199.94 40.2693 1200.58 40.632C1201.22 40.9947 1201.71 41.496 1202.05 42.136C1202.4 42.7653 1202.58 43.48 1202.58 44.28ZM1201.07 43.976C1201.07 43.4213 1200.95 42.9467 1200.7 42.552C1200.46 42.1467 1200.12 41.8427 1199.7 41.64C1199.28 41.4267 1198.82 41.32 1198.3 41.32C1197.57 41.32 1196.94 41.5547 1196.42 42.024C1195.9 42.4933 1195.61 43.144 1195.54 43.976H1201.07ZM1203.95 44.584C1203.95 43.688 1204.13 42.904 1204.5 42.232C1204.86 41.5493 1205.36 41.0213 1205.99 40.648C1206.63 40.2747 1207.34 40.088 1208.13 40.088C1208.81 40.088 1209.45 40.248 1210.03 40.568C1210.62 40.8773 1211.07 41.288 1211.38 41.8V37.16H1212.85V49H1211.38V47.352C1211.09 47.8747 1210.66 48.3067 1210.1 48.648C1209.53 48.9787 1208.87 49.144 1208.11 49.144C1207.33 49.144 1206.63 48.952 1205.99 48.568C1205.36 48.184 1204.86 47.6453 1204.5 46.952C1204.13 46.2587 1203.95 45.4693 1203.95 44.584ZM1211.38 44.6C1211.38 43.9387 1211.24 43.3627 1210.98 42.872C1210.71 42.3813 1210.35 42.008 1209.89 41.752C1209.44 41.4853 1208.95 41.352 1208.4 41.352C1207.86 41.352 1207.36 41.48 1206.91 41.736C1206.47 41.992 1206.11 42.3653 1205.84 42.856C1205.57 43.3467 1205.44 43.9227 1205.44 44.584C1205.44 45.256 1205.57 45.8427 1205.84 46.344C1206.11 46.8347 1206.47 47.2133 1206.91 47.48C1207.36 47.736 1207.86 47.864 1208.4 47.864C1208.95 47.864 1209.44 47.736 1209.89 47.48C1210.35 47.2133 1210.71 46.8347 1210.98 46.344C1211.24 45.8427 1211.38 45.2613 1211.38 44.6ZM1222.68 49.144C1222.01 49.144 1221.41 49.032 1220.87 48.808C1220.34 48.5733 1219.92 48.2533 1219.61 47.848C1219.3 47.432 1219.13 46.9573 1219.1 46.424H1220.6C1220.64 46.8613 1220.85 47.2187 1221.21 47.496C1221.58 47.7733 1222.07 47.912 1222.66 47.912C1223.22 47.912 1223.66 47.7893 1223.98 47.544C1224.3 47.2987 1224.46 46.9893 1224.46 46.616C1224.46 46.232 1224.29 45.9493 1223.94 45.768C1223.6 45.576 1223.07 45.3893 1222.36 45.208C1221.71 45.0373 1221.18 44.8667 1220.76 44.696C1220.35 44.5147 1220 44.2533 1219.7 43.912C1219.42 43.56 1219.27 43.1013 1219.27 42.536C1219.27 42.088 1219.41 41.6773 1219.67 41.304C1219.94 40.9307 1220.32 40.6373 1220.81 40.424C1221.3 40.2 1221.86 40.088 1222.49 40.088C1223.46 40.088 1224.24 40.3333 1224.84 40.824C1225.44 41.3147 1225.76 41.9867 1225.8 42.84H1224.34C1224.31 42.3813 1224.13 42.0133 1223.78 41.736C1223.45 41.4587 1223.01 41.32 1222.44 41.32C1221.92 41.32 1221.5 41.432 1221.19 41.656C1220.88 41.88 1220.73 42.1733 1220.73 42.536C1220.73 42.824 1220.82 43.064 1221 43.256C1221.19 43.4373 1221.43 43.5867 1221.7 43.704C1221.99 43.8107 1222.39 43.9333 1222.89 44.072C1223.52 44.2427 1224.03 44.4133 1224.42 44.584C1224.82 44.744 1225.15 44.9893 1225.43 45.32C1225.72 45.6507 1225.87 46.0827 1225.88 46.616C1225.88 47.096 1225.75 47.528 1225.48 47.912C1225.21 48.296 1224.83 48.6 1224.34 48.824C1223.86 49.0373 1223.31 49.144 1222.68 49.144ZM1235.71 40.232V49H1234.26V47.704C1233.98 48.152 1233.59 48.504 1233.09 48.76C1232.6 49.0053 1232.05 49.128 1231.46 49.128C1230.77 49.128 1230.16 48.9893 1229.62 48.712C1229.07 48.424 1228.64 47.9973 1228.32 47.432C1228.01 46.8667 1227.86 46.1787 1227.86 45.368V40.232H1229.3V45.176C1229.3 46.04 1229.51 46.7067 1229.95 47.176C1230.39 47.6347 1230.99 47.864 1231.74 47.864C1232.52 47.864 1233.14 47.624 1233.58 47.144C1234.03 46.664 1234.26 45.9653 1234.26 45.048V40.232H1235.71ZM1239.63 41.848C1239.91 41.3467 1240.34 40.9307 1240.91 40.6C1241.48 40.2587 1242.15 40.088 1242.91 40.088C1243.68 40.088 1244.39 40.2747 1245.02 40.648C1245.66 41.0213 1246.16 41.5493 1246.52 42.232C1246.88 42.904 1247.07 43.688 1247.07 44.584C1247.07 45.4693 1246.88 46.2587 1246.52 46.952C1246.16 47.6453 1245.66 48.184 1245.02 48.568C1244.39 48.952 1243.68 49.144 1242.91 49.144C1242.16 49.144 1241.5 48.9787 1240.92 48.648C1240.36 48.3067 1239.92 47.8853 1239.63 47.384V53.16H1238.17V40.232H1239.63V41.848ZM1245.58 44.584C1245.58 43.9227 1245.44 43.3467 1245.18 42.856C1244.91 42.3653 1244.55 41.992 1244.09 41.736C1243.64 41.48 1243.15 41.352 1242.6 41.352C1242.07 41.352 1241.57 41.4853 1241.11 41.752C1240.67 42.008 1240.3 42.3867 1240.03 42.888C1239.76 43.3787 1239.63 43.9493 1239.63 44.6C1239.63 45.2613 1239.76 45.8427 1240.03 46.344C1240.3 46.8347 1240.67 47.2133 1241.11 47.48C1241.57 47.736 1242.07 47.864 1242.6 47.864C1243.15 47.864 1243.64 47.736 1244.09 47.48C1244.55 47.2133 1244.91 46.8347 1245.18 46.344C1245.44 45.8427 1245.58 45.256 1245.58 44.584ZM1250.44 41.848C1250.73 41.3467 1251.15 40.9307 1251.72 40.6C1252.29 40.2587 1252.96 40.088 1253.72 40.088C1254.5 40.088 1255.2 40.2747 1255.83 40.648C1256.47 41.0213 1256.97 41.5493 1257.33 42.232C1257.7 42.904 1257.88 43.688 1257.88 44.584C1257.88 45.4693 1257.7 46.2587 1257.33 46.952C1256.97 47.6453 1256.47 48.184 1255.83 48.568C1255.2 48.952 1254.5 49.144 1253.72 49.144C1252.97 49.144 1252.31 48.9787 1251.73 48.648C1251.17 48.3067 1250.74 47.8853 1250.44 47.384V53.16H1248.98V40.232H1250.44V41.848ZM1256.39 44.584C1256.39 43.9227 1256.26 43.3467 1255.99 42.856C1255.72 42.3653 1255.36 41.992 1254.9 41.736C1254.45 41.48 1253.96 41.352 1253.41 41.352C1252.88 41.352 1252.38 41.4853 1251.93 41.752C1251.48 42.008 1251.12 42.3867 1250.84 42.888C1250.57 43.3787 1250.44 43.9493 1250.44 44.6C1250.44 45.2613 1250.57 45.8427 1250.84 46.344C1251.12 46.8347 1251.48 47.2133 1251.93 47.48C1252.38 47.736 1252.88 47.864 1253.41 47.864C1253.96 47.864 1254.45 47.736 1254.9 47.48C1255.36 47.2133 1255.72 46.8347 1255.99 46.344C1256.26 45.8427 1256.39 45.256 1256.39 44.584ZM1263.62 49.144C1262.8 49.144 1262.05 48.9573 1261.38 48.584C1260.72 48.2107 1260.19 47.6827 1259.81 47C1259.44 46.3067 1259.25 45.5067 1259.25 44.6C1259.25 43.704 1259.44 42.9147 1259.83 42.232C1260.22 41.5387 1260.75 41.0107 1261.43 40.648C1262.1 40.2747 1262.85 40.088 1263.68 40.088C1264.51 40.088 1265.27 40.2747 1265.94 40.648C1266.61 41.0107 1267.14 41.5333 1267.52 42.216C1267.92 42.8987 1268.11 43.6933 1268.11 44.6C1268.11 45.5067 1267.91 46.3067 1267.51 47C1267.11 47.6827 1266.57 48.2107 1265.89 48.584C1265.21 48.9573 1264.45 49.144 1263.62 49.144ZM1263.62 47.864C1264.14 47.864 1264.63 47.7413 1265.09 47.496C1265.55 47.2507 1265.92 46.8827 1266.19 46.392C1266.48 45.9013 1266.63 45.304 1266.63 44.6C1266.63 43.896 1266.49 43.2987 1266.21 42.808C1265.93 42.3173 1265.57 41.9547 1265.12 41.72C1264.67 41.4747 1264.19 41.352 1263.67 41.352C1263.13 41.352 1262.64 41.4747 1262.19 41.72C1261.76 41.9547 1261.41 42.3173 1261.14 42.808C1260.87 43.2987 1260.74 43.896 1260.74 44.6C1260.74 45.3147 1260.87 45.9173 1261.12 46.408C1261.39 46.8987 1261.74 47.2667 1262.18 47.512C1262.62 47.7467 1263.1 47.864 1263.62 47.864ZM1271.48 41.656C1271.74 41.1547 1272.1 40.7653 1272.57 40.488C1273.05 40.2107 1273.63 40.072 1274.32 40.072V41.576H1273.93C1272.3 41.576 1271.48 42.4613 1271.48 44.232V49H1270.03V40.232H1271.48V41.656ZM1277.77 41.432V46.6C1277.77 47.0267 1277.86 47.3307 1278.05 47.512C1278.23 47.6827 1278.54 47.768 1278.99 47.768H1280.06V49H1278.75C1277.94 49 1277.33 48.8133 1276.93 48.44C1276.52 48.0667 1276.32 47.4533 1276.32 46.6V41.432H1275.18V40.232H1276.32V38.024H1277.77V40.232H1280.06V41.432H1277.77Z" fill="#484848"/>
<path d="M1108.86 29.9042C1108.39 29.4333 1107.75 29.1688 1107.08 29.1688C1106.42 29.1688 1105.78 29.4333 1105.31 29.9042L1102.94 32.2727C1102.93 32.2727 1102.93 32.2836 1102.93 32.2878L1101.75 33.4541C1101.37 33.844 1100.91 34.1535 1100.4 34.3646C1099.89 34.5758 1099.35 34.6846 1098.8 34.6846C1098.25 34.6846 1097.7 34.5758 1097.2 34.3646C1096.69 34.1535 1096.23 33.844 1095.84 33.4541L1087.55 25.1654C1087.16 24.7779 1086.85 24.317 1086.64 23.8094C1086.43 23.3017 1086.32 22.7573 1086.32 22.2075C1086.32 21.6577 1086.43 21.1133 1086.64 20.6056C1086.85 20.098 1087.16 19.6371 1087.55 19.2495L1088.72 18.0774L1088.73 18.0707L1091.1 15.703C1091.33 15.4697 1091.52 15.1929 1091.64 14.8881C1091.77 14.5834 1091.83 14.2567 1091.83 13.9268C1091.83 13.5969 1091.77 13.2702 1091.64 12.9655C1091.52 12.6607 1091.33 12.3838 1091.1 12.1506L1083.99 5.03994C1083.51 4.58306 1082.88 4.32812 1082.22 4.32812C1081.55 4.32812 1080.92 4.58306 1080.44 5.03994L1078.07 7.40765L1078.07 7.41686C1075.25 10.2422 1073.59 14.0251 1073.43 18.0137C1073.27 22.0023 1074.62 25.9045 1077.21 28.9447V31.8625C1077.09 31.9102 1076.97 31.9588 1076.86 32.0082L1074.64 29.7861C1074.48 29.6348 1074.27 29.5506 1074.04 29.5506C1073.82 29.5506 1073.61 29.6348 1073.45 29.7861L1069.9 33.336C1069.75 33.493 1069.66 33.7059 1069.66 33.9279C1069.66 34.15 1069.75 34.3629 1069.9 34.5199L1072.13 36.7419C1072.07 36.8558 1072.03 36.9721 1071.98 37.0927H1068.84C1068.62 37.0927 1068.4 37.1809 1068.25 37.3379C1068.09 37.4949 1068 37.7079 1068 37.9299V42.9534C1068 43.1754 1068.09 43.3884 1068.25 43.5454C1068.4 43.7023 1068.62 43.7906 1068.84 43.7906H1071.98C1072.03 43.9112 1072.07 44.0275 1072.13 44.1406L1069.9 46.3634C1069.75 46.5204 1069.66 46.7333 1069.66 46.9553C1069.66 47.1774 1069.75 47.3903 1069.9 47.5473L1073.45 51.0972C1073.61 51.2541 1073.82 51.3423 1074.04 51.3423C1074.27 51.3423 1074.48 51.2541 1074.64 51.0972L1076.86 48.8751C1076.97 48.9245 1077.09 48.9731 1077.21 49.0208V52.163C1077.21 52.385 1077.3 52.598 1077.45 52.755C1077.61 52.9119 1077.82 53.0002 1078.05 53.0002H1083.07C1083.29 53.0002 1083.51 52.9119 1083.66 52.755C1083.82 52.598 1083.91 52.385 1083.91 52.163V49.0208C1084.03 48.9731 1084.14 48.9245 1084.26 48.8751L1086.48 51.0972C1086.64 51.2484 1086.85 51.3327 1087.07 51.3327C1087.29 51.3327 1087.5 51.2484 1087.66 51.0972L1091.21 47.5473C1091.37 47.3903 1091.46 47.1774 1091.46 46.9553C1091.46 46.7333 1091.37 46.5204 1091.21 46.3634L1088.99 44.1406C1089.04 44.0275 1089.09 43.9112 1089.14 43.7906H1092.05C1095.09 46.3817 1099 47.7326 1102.99 47.5741C1106.98 47.4157 1110.76 45.7596 1113.58 42.9358L1113.59 42.9291L1115.96 40.5605C1116.19 40.3273 1116.38 40.0504 1116.5 39.7457C1116.63 39.4409 1116.7 39.1142 1116.7 38.7843C1116.7 38.4545 1116.63 38.1278 1116.5 37.823C1116.38 37.5183 1116.19 37.2414 1115.96 37.0081L1108.86 29.9042ZM1081.62 6.22296C1081.78 6.07075 1082 5.98582 1082.22 5.98582C1082.44 5.98582 1082.65 6.07075 1082.81 6.22296L1089.91 13.3277C1090.07 13.4847 1090.16 13.6975 1090.16 13.9193C1090.16 14.141 1090.07 14.3538 1089.91 14.5108L1088.14 16.2849L1079.85 7.99622L1081.62 6.22296ZM1091.44 42.1161H1088.55C1088.37 42.1161 1088.2 42.1724 1088.05 42.2768C1087.91 42.3812 1087.8 42.5284 1087.75 42.6972C1087.62 43.1159 1087.45 43.5213 1087.24 43.9078C1087.16 44.0665 1087.12 44.2492 1087.15 44.4284C1087.17 44.6076 1087.26 44.7736 1087.38 44.9016L1089.44 46.9553L1087.07 49.3214L1085.02 47.2676C1084.89 47.1395 1084.72 47.0563 1084.54 47.0307C1084.37 47.005 1084.18 47.0382 1084.02 47.1253C1083.64 47.3329 1083.23 47.5025 1082.81 47.6318C1082.64 47.6863 1082.5 47.7927 1082.39 47.9359C1082.29 48.0791 1082.23 48.2517 1082.23 48.4289V51.3257H1078.88V48.4289C1078.88 48.2517 1078.83 48.0791 1078.72 47.9359C1078.62 47.7927 1078.47 47.6863 1078.3 47.6318C1077.89 47.5025 1077.48 47.3329 1077.09 47.1253C1076.93 47.0382 1076.75 47.005 1076.57 47.0307C1076.39 47.0563 1076.23 47.1395 1076.1 47.2676L1074.04 49.3214L1071.68 46.9553L1073.74 44.9016C1073.86 44.7736 1073.95 44.6076 1073.97 44.4284C1074 44.2492 1073.97 44.0665 1073.88 43.9078C1073.67 43.5212 1073.51 43.1158 1073.38 42.6972C1073.32 42.527 1073.21 42.3788 1073.07 42.2744C1072.92 42.1698 1072.75 42.1144 1072.57 42.1161H1069.67V38.7672H1072.57C1072.75 38.7672 1072.92 38.7109 1073.06 38.6065C1073.21 38.5021 1073.31 38.3549 1073.37 38.1861C1073.5 37.7675 1073.67 37.3621 1073.87 36.9755C1073.96 36.8167 1073.99 36.6341 1073.97 36.4549C1073.94 36.2757 1073.86 36.1097 1073.73 35.9817L1071.68 33.9279L1074.04 31.5619L1076.1 33.6157C1076.23 33.7438 1076.39 33.827 1076.57 33.8526C1076.75 33.8783 1076.93 33.8451 1077.09 33.758C1077.48 33.5504 1077.89 33.3808 1078.3 33.2515C1078.47 33.197 1078.62 33.0906 1078.72 32.9474C1078.83 32.8041 1078.88 32.6316 1078.88 32.4544V29.5576H1082.23V32.4544C1082.23 32.6316 1082.29 32.8041 1082.39 32.9474C1082.5 33.0906 1082.64 33.197 1082.81 33.2515C1083.23 33.3808 1083.64 33.5504 1084.02 33.758C1084.18 33.8451 1084.37 33.8783 1084.54 33.8526C1084.72 33.827 1084.89 33.7438 1085.02 33.6157L1087.07 31.5619L1089.44 33.9279L1087.38 35.9817C1087.26 36.1097 1087.17 36.2757 1087.15 36.4549C1087.12 36.6341 1087.16 36.8167 1087.24 36.9755C1087.45 37.362 1087.62 37.7673 1087.75 38.1861C1087.8 38.3549 1087.91 38.5021 1088.05 38.6065C1088.2 38.7109 1088.37 38.7672 1088.55 38.7672H1091.44V42.1161ZM1093.12 42.4987V37.9299C1093.12 37.7079 1093.03 37.4949 1092.87 37.3379C1092.72 37.1809 1092.5 37.0927 1092.28 37.0927H1089.14C1089.09 36.9721 1089.04 36.8558 1088.99 36.7419L1091.21 34.5199C1091.37 34.3629 1091.46 34.15 1091.46 33.9279C1091.46 33.7059 1091.37 33.493 1091.21 33.336L1087.66 29.7861C1087.51 29.6292 1087.29 29.541 1087.07 29.541C1086.85 29.541 1086.64 29.6292 1086.48 29.7861L1084.26 32.0082C1084.14 31.9588 1084.03 31.9102 1083.91 31.8625V28.7203C1083.91 28.4983 1083.82 28.2853 1083.66 28.1283C1083.51 27.9713 1083.29 27.8831 1083.07 27.8831H1078.5C1076.27 25.2723 1075.06 21.9429 1075.09 18.5093C1075.13 15.0758 1076.4 11.7702 1078.68 9.20268L1086.95 17.4721L1086.36 18.0632C1085.82 18.6064 1085.39 19.2522 1085.09 19.9634C1084.79 20.6747 1084.64 21.4373 1084.64 22.2075C1084.64 22.9776 1084.79 23.7403 1085.09 24.4515C1085.39 25.1628 1085.82 25.8085 1086.36 26.3518L1094.65 34.6404C1095.2 35.1861 1095.84 35.6192 1096.55 35.9149C1097.26 36.2105 1098.02 36.3629 1098.79 36.3633C1099.56 36.3637 1100.33 36.2121 1101.04 35.9171C1101.75 35.6222 1102.39 35.1897 1102.94 34.6446L1103.53 34.0535L1111.8 42.3229C1109.23 44.6032 1105.93 45.8772 1102.49 45.9096C1099.06 45.9419 1095.73 44.7303 1093.12 42.4987ZM1114.78 39.3767L1113 41.1508L1104.71 32.8621L1106.49 31.0889C1106.65 30.9319 1106.86 30.8437 1107.08 30.8437C1107.3 30.8437 1107.52 30.9319 1107.67 31.0889L1114.78 38.1928C1114.93 38.3498 1115.02 38.5627 1115.02 38.7848C1115.02 39.0068 1114.93 39.2197 1114.78 39.3767Z" fill="black"/>
<path d="M1080.56 36.2556C1079.73 36.2556 1078.92 36.5011 1078.23 36.9611C1077.54 37.4211 1077.01 38.0748 1076.69 38.8398C1076.37 39.6047 1076.29 40.4464 1076.45 41.2585C1076.61 42.0706 1077.01 42.8165 1077.6 43.4018C1078.18 43.9873 1078.93 44.386 1079.74 44.5475C1080.55 44.7091 1081.4 44.6261 1082.16 44.3093C1082.93 43.9925 1083.58 43.4559 1084.04 42.7675C1084.5 42.0791 1084.74 41.2697 1084.74 40.4418C1084.74 39.332 1084.3 38.268 1083.52 37.4832C1082.73 36.6984 1081.67 36.257 1080.56 36.2556ZM1080.56 42.9535C1080.06 42.9535 1079.58 42.8062 1079.16 42.5302C1078.75 42.2542 1078.43 41.8619 1078.24 41.4029C1078.05 40.9441 1078 40.439 1078.1 39.9518C1078.19 39.4646 1078.43 39.017 1078.78 38.6658C1079.13 38.3145 1079.58 38.0753 1080.07 37.9783C1080.56 37.8814 1081.06 37.9312 1081.52 38.1213C1081.98 38.3114 1082.37 38.6333 1082.65 39.0464C1082.92 39.4594 1083.07 39.9451 1083.07 40.4418C1083.07 41.1079 1082.81 41.7468 1082.33 42.2178C1081.86 42.6889 1081.22 42.9535 1080.56 42.9535Z" fill="black"/>
<path d="M1096.58 3.00778C1096.36 2.97758 1096.14 3.03604 1095.96 3.17028C1095.78 3.30452 1095.67 3.50357 1095.64 3.72362C1095.61 3.94367 1095.66 4.1667 1095.8 4.34366C1095.93 4.52061 1096.13 4.63698 1096.35 4.66718C1101.4 5.37321 1106.08 7.7055 1109.69 11.3108C1113.29 14.9162 1115.63 19.5982 1116.33 24.6478C1116.36 24.8482 1116.46 25.0318 1116.61 25.1647C1116.76 25.2977 1116.96 25.371 1117.16 25.3712C1117.2 25.3712 1117.24 25.3687 1117.28 25.3637C1117.38 25.3488 1117.49 25.3125 1117.58 25.257C1117.68 25.2015 1117.76 25.1278 1117.83 25.0402C1117.9 24.9526 1117.94 24.8527 1117.97 24.7463C1118 24.6399 1118.01 24.529 1117.99 24.4201C1117.23 19.0088 1114.74 13.9915 1110.87 10.1278C1107.01 6.26417 1101.99 3.76466 1096.58 3.00778Z" fill="black"/>
<path d="M1096.32 9.7528C1100.04 10.4111 1103.46 12.1959 1106.13 14.8655C1108.8 17.5352 1110.59 20.9606 1111.25 24.6782C1111.28 24.8724 1111.38 25.0483 1111.53 25.1751C1111.68 25.3019 1111.87 25.3714 1112.07 25.3714C1112.12 25.3714 1112.17 25.3672 1112.22 25.3589C1112.44 25.3207 1112.63 25.1971 1112.76 25.0155C1112.89 24.8339 1112.94 24.6089 1112.9 24.3902C1112.18 20.3333 1110.23 16.595 1107.32 13.6819C1104.41 10.7686 1100.67 8.82119 1096.61 8.10344C1096.5 8.08442 1096.39 8.08692 1096.28 8.11079C1096.18 8.13467 1096.08 8.17944 1095.99 8.24257C1095.9 8.3057 1095.82 8.38594 1095.76 8.47872C1095.7 8.57149 1095.66 8.67498 1095.64 8.78328C1095.62 8.89158 1095.63 9.00256 1095.65 9.1099C1095.67 9.21723 1095.72 9.31881 1095.78 9.40884C1095.84 9.49887 1095.92 9.57556 1096.02 9.63458C1096.11 9.69361 1096.21 9.7338 1096.32 9.7528Z" fill="black"/>
<path d="M1096.27 14.8658C1098.66 15.4563 1100.84 16.6871 1102.58 18.4256C1104.31 20.1642 1105.54 22.3443 1106.13 24.731C1106.16 24.8407 1106.2 24.9447 1106.27 25.0369C1106.33 25.129 1106.41 25.2073 1106.51 25.2672C1106.6 25.3272 1106.71 25.3673 1106.82 25.3856C1106.93 25.4038 1107.04 25.3996 1107.15 25.3732C1107.26 25.3468 1107.36 25.2989 1107.45 25.2321C1107.54 25.1653 1107.62 25.0812 1107.68 24.9846C1107.73 24.8879 1107.77 24.7809 1107.78 24.6698C1107.8 24.5586 1107.79 24.4455 1107.76 24.3375C1107.1 21.6519 1105.71 19.1987 1103.76 17.2426C1101.8 15.2866 1099.35 13.902 1096.66 13.2382C1096.55 13.2098 1096.44 13.2032 1096.33 13.2188C1096.22 13.2344 1096.12 13.2719 1096.02 13.3291C1095.92 13.3862 1095.84 13.4618 1095.77 13.5517C1095.71 13.6414 1095.66 13.7435 1095.63 13.8518C1095.61 13.9602 1095.6 14.0727 1095.62 14.1827C1095.64 14.2927 1095.68 14.398 1095.74 14.4925C1095.8 14.5869 1095.88 14.6685 1095.97 14.7327C1096.06 14.7968 1096.16 14.842 1096.27 14.8658Z" fill="black"/>
<path d="M1098.14 26.2088C1098.8 26.2088 1099.45 26.0123 1100 25.6444C1100.55 25.2764 1100.98 24.7533 1101.23 24.1414C1101.49 23.5294 1101.55 22.8561 1101.43 22.2064C1101.3 21.5568 1100.98 20.9601 1100.51 20.4918C1100.04 20.0234 1099.44 19.7044 1098.79 19.5753C1098.14 19.446 1097.47 19.5123 1096.86 19.7658C1096.25 20.0192 1095.72 20.4485 1095.36 20.9992C1094.99 21.55 1094.79 22.1975 1094.79 22.8598C1094.79 23.748 1095.14 24.5998 1095.77 25.2279C1096.4 25.8559 1097.25 26.2088 1098.14 26.2088ZM1098.14 21.1853C1098.47 21.1853 1098.8 21.2835 1099.07 21.4676C1099.35 21.6515 1099.56 21.9131 1099.69 22.219C1099.81 22.525 1099.85 22.8617 1099.78 23.1865C1099.72 23.5113 1099.56 23.8097 1099.32 24.0438C1099.09 24.278 1098.79 24.4375 1098.47 24.5021C1098.14 24.5667 1097.81 24.5335 1097.5 24.4069C1097.19 24.2801 1096.93 24.0654 1096.75 23.7901C1096.56 23.5147 1096.47 23.191 1096.47 22.8598C1096.47 22.4157 1096.64 21.9898 1096.96 21.6758C1097.27 21.3617 1097.7 21.1853 1098.14 21.1853Z" fill="black"/>
</svg>
